<?xml version="1.0" encoding="utf-8"?>
<!-- Generator: Adobe Illustrator 20.0.0, SVG Export Plug-In . SVG Version: 6.00 Build 0)  -->
<svg version="1.1" id="Layer_1" xmlns="http://www.w3.org/2000/svg" xmlns:xlink="http://www.w3.org/1999/xlink" x="0px" y="0px"
	 viewBox="0 0 161 61.5" style="enable-background:new 0 0 161 61.5;" xml:space="preserve">
<style type="text/css">
	.st0{fill:#656869;}
	.st1{fill:#E67911;}
	.st2{fill:#F28E1D;}
	.st3{fill:#0376B0;}
</style>
<path class="st0" d="M94.7,44.1H79.1V16.9c0-10.5-4.7-16.4-14.7-16.4h-2.5v60.7l32.8,0c4.5,0,8.1-4.1,8.1-8.6v0
	C102.8,48.2,99.2,44.1,94.7,44.1z"/>
<g>
	<path class="st1" d="M159.1,13.7L145.2,31l13.9,17.2c4.3,5.3,0.5,13.2-6.3,13.2h0c-2.4,0-4.8-1.1-6.3-3L124.4,31l22.1-27.4
		c1.5-1.9,3.8-3,6.3-3h0C159.5,0.6,163.3,8.4,159.1,13.7z"/>
	<path class="st2" d="M110.5,48.2L124.4,31l-13.9-17.2c-4.3-5.3-0.5-13.2,6.3-13.2h0c2.4,0,4.8,1.1,6.3,3L145.2,31l-22.1,27.4
		c-1.5,1.9-3.8,3-6.3,3h0C110,61.3,106.2,53.5,110.5,48.2z"/>
</g>
<path class="st3" d="M39.5,41.3c-2.6,1.9-5.7,3.2-9.2,3c-6.8-0.3-12.4-5.9-12.8-12.7c-0.5-7.9,5.8-14.5,13.6-14.5
	c3.1,0,5.6,0.9,8.3,2.8c2.8,2,6.5,2.3,9.5,0.6l0,0c5.2-3.1,5.7-10.5,0.9-14.2c-5.4-4.2-12.5-6.5-21.5-5.9
	C12.4,1.5,0.1,14.8,0.1,30.7l0,0.2c0,18.1,14.1,30.2,30.2,30.2c8.8,0,15.3-2.6,20.1-6.6c4.6-3.8,3.9-11.1-1.3-14l0,0
	C46,38.7,42.6,39,39.5,41.3z"/>
</svg>
