<svg xmlns="http://www.w3.org/2000/svg" viewBox="0 0 279.95 74.28"><title>site-logo</title><path d="M0 41.34a37.77 37.77 0 0 0 10.35 22c6.62 6.87 14.42 9.91 22.57 11-5.32-5.98-12.32-10.96-11.67-13.41.29-1.35.59-2.8 5.47-2.75 6.9.58 8.7-7.08 3.56-13-3.57-3.58-8.14-5.37-11.79-3.07a5.2 5.2 0 0 0-2.25 3.53c-.38 2.55.62 7.37-3 7.39-1.82.68-6-4.88-13.19-11.7zm41.12 32.94a37.78 37.78 0 0 0 22-10.35c6.87-6.62 9.91-14.42 11-22.57C68.14 46.68 63.17 53.68 60.71 53c-1.35-.29-2.8-.59-2.75-5.47.58-6.9-7.08-8.7-13-3.56-3.58 3.57-5.37 8.14-3.07 11.79a5.2 5.2 0 0 0 3.53 2.25c2.55.38 7.37-.62 7.39 3 .68 1.82-4.88 6-11.7 13.19zM33 0a37.77 37.77 0 0 0-22 10.35C4.14 17 1.09 24.77 0 32.92 5.94 27.6 10.92 20.6 13.38 21.25c1.35.29 2.8.59 2.75 5.47-.58 6.9 7.08 8.7 13 3.56 3.58-3.57 5.37-8.14 3.07-11.79a5.2 5.2 0 0 0-3.53-2.25c-2.55-.38-7.37.62-7.39-3C20.58 11.36 26.14 7.16 33 0zm41.06 32.94A37.77 37.77 0 0 0 63.71 11C57.09 4.12 49.29 1.07 41.15 0c5.31 5.92 12.32 10.9 11.67 13.36-.29 1.35-.59 2.8-5.47 2.75-6.9-.58-8.7 7.08-3.56 13 3.57 3.58 8.14 5.37 11.79 3.07a5.2 5.2 0 0 0 2.25-3.53c.38-2.55-.62-7.37 3-7.39 1.82-.68 6 4.88 13.19 11.7z" fill="#cf0a2c" fill-rule="evenodd"/><path d="M93 48.11a8.2 8.2 0 0 1-3-.55 7.41 7.41 0 0 1-4.22-4.2 8.79 8.79 0 0 1-.61-3.36V27.74a8.64 8.64 0 0 1 .62-3.23 8 8 0 0 1 1.37-2.38 8.71 8.71 0 0 1 1.17-1.18 10.24 10.24 0 0 1 1-.73h.07c.3-.16.72-.36 1.27-.58a6.23 6.23 0 0 1 2.35-.37 6.12 6.12 0 0 1 1.48.21c.48.12.93.25 1.39.39l3.75 1.43-1.23 3.49-4.01-1.6c-.24-.1-.48-.18-.74-.26a2 2 0 0 0-.55-.09 3.27 3.27 0 0 0-1.59.41 4.82 4.82 0 0 0-1.39 1.1 5.5 5.5 0 0 0-1 1.58 4.74 4.74 0 0 0-.35 1.82l-.08 12.08a4.89 4.89 0 0 0 .35 1.89A4.24 4.24 0 0 0 91.4 44a4.74 4.74 0 0 0 1.62.37 3 3 0 0 0 .44 0 3.19 3.19 0 0 0 .6-.15c.27-.09.6-.21 1-.36l1.58-.61 1.72-.75 1.44 3.67-3.87 1.37a10.29 10.29 0 0 1-1.51.41 7.4 7.4 0 0 1-1.42.16zm16.14-17.72a6.14 6.14 0 0 0-1 .11 3.09 3.09 0 0 0-1.08.42 2.69 2.69 0 0 0-.86.88 3 3 0 0 0-.35 1.56v8.17a3.05 3.05 0 0 0 .35 1.59 2.63 2.63 0 0 0 .8.88 3.39 3.39 0 0 0 1.09.44 5.22 5.22 0 0 0 1 .12 4.94 4.94 0 0 0 1-.12 3.42 3.42 0 0 0 1.08-.44 2.48 2.48 0 0 0 .83-.88 3.2 3.2 0 0 0 .34-1.6v-8.17a3.09 3.09 0 0 0-.33-1.57 2.52 2.52 0 0 0-.83-.87 3.11 3.11 0 0 0-1.06-.42 5.82 5.82 0 0 0-1-.11zm0 17.58a10.59 10.59 0 0 1-1.87-.2 6 6 0 0 1-2.18-.89 5.7 5.7 0 0 1-1.77-1.88 6.19 6.19 0 0 1-.73-3.19v-8.73a6.19 6.19 0 0 1 .73-3.19 5.52 5.52 0 0 1 1.77-1.89 6.17 6.17 0 0 1 2.18-.87 10.61 10.61 0 0 1 1.87-.2 10.31 10.31 0 0 1 1.86.2 6.18 6.18 0 0 1 2.15.86 5.54 5.54 0 0 1 1.77 1.88 6.2 6.2 0 0 1 .73 3.19v8.71a6.19 6.19 0 0 1-.73 3.19 5.72 5.72 0 0 1-1.77 1.89 6 6 0 0 1-2.16.89 10.32 10.32 0 0 1-1.86.2zm20.66-.24V33.58a3.22 3.22 0 0 0-.8-2.36 2.41 2.41 0 0 0-1.74-.8 10 10 0 0 0-1.6.17 5.68 5.68 0 0 0-2 .84v16.3h-3.47V30.28l-1.15-1.1 2.43-2.48 1.3 1.26a8.5 8.5 0 0 1 3.78-1 8.13 8.13 0 0 1 3.51.79 5.27 5.27 0 0 1 2.58 2.78 6.34 6.34 0 0 1 .58 2.14c.05.66.08 1.35.08 2.05v13zm17.85 0V33.58a3.22 3.22 0 0 0-.8-2.36 2.41 2.41 0 0 0-1.74-.8 10 10 0 0 0-1.6.17 5.68 5.68 0 0 0-2 .84v16.3h-3.47V30.28l-1.15-1.1 2.43-2.48 1.3 1.26a8.5 8.5 0 0 1 3.78-1 8.13 8.13 0 0 1 3.51.79 5.27 5.27 0 0 1 2.58 2.78 6.34 6.34 0 0 1 .58 2.14c.05.66.08 1.35.08 2.05v13zm15.19-10.64a2.09 2.09 0 0 0 1.64-.77 2.69 2.69 0 0 0 .7-1.85v-1.58a2.32 2.32 0 0 0-.25-1.12 2 2 0 0 0-.67-.73 3.09 3.09 0 0 0-1-.43 6.14 6.14 0 0 0-1.32-.14 3.12 3.12 0 0 0-2 .68 2.08 2.08 0 0 0-.81 1.74v4.17h3.75zm-.51 11a6.9 6.9 0 0 1-2.61-.5 6.82 6.82 0 0 1-2.16-1.38 6.6 6.6 0 0 1-1.47-2.1 6.52 6.52 0 0 1-.55-2.69v-8.34a6.1 6.1 0 0 1 3.61-5.64 5.62 5.62 0 0 1 2.32-.49h1.28a5.83 5.83 0 0 1 4.2 1.76 6.15 6.15 0 0 1 1.27 1.94 6.29 6.29 0 0 1 .47 2.42v1.24a6.56 6.56 0 0 1-.64 3 5.39 5.39 0 0 1-1.78 2 7.49 7.49 0 0 1-2.56 1.08 13.39 13.39 0 0 1-3 .32c-.55 0-1.1 0-1.65-.07V42a3.12 3.12 0 0 0 1.14 1.86 3.23 3.23 0 0 0 2.1.74l.8-.16 1.78-.4c.75-.16 1.58-.35 2.47-.58l.51-.13.87 3.58-.52.11q-1.48.31-2.72.54l-2 .35a9.1 9.1 0 0 1-1.21.16zm16.92-.09a6.89 6.89 0 0 1-2.61-.5 6.82 6.82 0 0 1-2.16-1.38A6.37 6.37 0 0 1 173 44a6.72 6.72 0 0 1-.53-2.68v-7.81a6.63 6.63 0 0 1 .53-2.64 6.53 6.53 0 0 1 1.43-2.1 6.36 6.36 0 0 1 2.15-1.37 7.15 7.15 0 0 1 2.61-.48 6 6 0 0 1 1.44.19q.71.18 1.37.37c.49.16 1 .35 1.52.56l.44.17-.91 3.12-.52-.2a10.09 10.09 0 0 0-1.21-.37c-.38-.11-.76-.2-1.15-.29a4.68 4.68 0 0 0-1-.12 3.34 3.34 0 0 0-2.33.87 2.89 2.89 0 0 0-1 2.29v7.86a3 3 0 0 0 1 2.36 3.4 3.4 0 0 0 2.35.88 5.55 5.55 0 0 0 .83-.09 11.23 11.23 0 0 0 1.13-.24c.46-.1.93-.23 1.41-.38l.49-.15 1.11 3.25-.49.16c-.55.18-1.08.34-1.58.47a11.6 11.6 0 0 1-1.44.32 9.09 9.09 0 0 1-1.4.12zm15.02-.23a5.32 5.32 0 0 1-3.68-1.35 5.61 5.61 0 0 1-1.53-4.35V30.73h-3.21V27.3h3.21v-7.51h3.55v7.51h3.45v3.43h-3.45v11.53a1.82 1.82 0 0 0 .49 1.5 2.17 2.17 0 0 0 1.35.42h1.6v3.59zm20.81-.04V28.38l-3.59 11.53h-4.44l-3.51-11.32v19.14h-3.59V19.59h4.69l4.65 15.49 4.73-15.49h4.65v28.14h-3.59zm15.97-10.64a2.09 2.09 0 0 0 1.64-.77 2.69 2.69 0 0 0 .7-1.85v-1.58a2.32 2.32 0 0 0-.25-1.12 2 2 0 0 0-.67-.73 3.08 3.08 0 0 0-1-.43 6.13 6.13 0 0 0-1.32-.14 3.12 3.12 0 0 0-2 .68 2.08 2.08 0 0 0-.81 1.74v4.17h3.75zm-.51 11a6.9 6.9 0 0 1-2.62-.5 6.83 6.83 0 0 1-2.16-1.38 6.62 6.62 0 0 1-1.47-2.1 6.53 6.53 0 0 1-.55-2.69v-8.34a6.1 6.1 0 0 1 3.61-5.64 5.61 5.61 0 0 1 2.32-.49H231a5.81 5.81 0 0 1 2.31.47 5.87 5.87 0 0 1 1.89 1.29 6.17 6.17 0 0 1 1.27 1.94 6.3 6.3 0 0 1 .47 2.42v1.24a6.54 6.54 0 0 1-.64 3 5.38 5.38 0 0 1-1.77 2 7.49 7.49 0 0 1-2.56 1.08 13.36 13.36 0 0 1-3 .32c-.55 0-1.1 0-1.65-.07V42a3.12 3.12 0 0 0 1.14 1.86 3.24 3.24 0 0 0 2.1.74l.8-.16 1.79-.4c.75-.16 1.58-.35 2.47-.58l.51-.13.87 3.58-.52.11q-1.48.31-2.72.54l-2 .35a9.14 9.14 0 0 1-1.21.16zm15.95-17.63a2.16 2.16 0 0 0-1.66.73 2.49 2.49 0 0 0-.69 1.78v9.17a2.42 2.42 0 0 0 .69 1.75 2.15 2.15 0 0 0 1.62.71 5.84 5.84 0 0 0 .87-.09c.39-.06.79-.14 1.2-.24a7.67 7.67 0 0 0 1.09-.34 1.68 1.68 0 0 0 .39-.21V31.48a7.46 7.46 0 0 0-1.91-.76 7.82 7.82 0 0 0-1.6-.26zm4.42 16.68a9.62 9.62 0 0 1-2.26.7 12.76 12.76 0 0 1-2.16.24 5.54 5.54 0 0 1-2.28-.47 5.76 5.76 0 0 1-1.83-1.3 6 6 0 0 1-1.23-1.95 6.43 6.43 0 0 1-.44-2.38v-8.9a6.29 6.29 0 0 1 .44-2.36 6.09 6.09 0 0 1 1.23-1.92 6 6 0 0 1 1.82-1.31 5.34 5.34 0 0 1 2.29-.49 14.37 14.37 0 0 1 1.71.14 7.53 7.53 0 0 1 1.84.51v-7.82h3.43v25l1.2 1.17-2.49 2.43-1.26-1.27zm7.41-22.83v-4.52h3.59v4.52zm0 23.42V27.34h3.59v20.39zm13.57-10.49a2.16 2.16 0 0 0-1.65.73 2.44 2.44 0 0 0-.69 1.74v2.4a2.42 2.42 0 0 0 .69 1.75 2.14 2.14 0 0 0 1.62.71 3.85 3.85 0 0 0 1-.17c.44-.12.89-.26 1.32-.42s.8-.31 1.24-.51v-5.39h-.05a6.43 6.43 0 0 0-.8-.34 9.52 9.52 0 0 0-1.21-.33 7 7 0 0 0-1.44-.14zm4.42 9.86a12.83 12.83 0 0 1-4.42 1 5.48 5.48 0 0 1-2.31-.49 5.58 5.58 0 0 1-1.83-1.34 6.47 6.47 0 0 1-1.64-4.33v-2.12a6.17 6.17 0 0 1 .45-2.32 6.29 6.29 0 0 1 1.2-1.92 5.73 5.73 0 0 1 1.83-1.32 5.48 5.48 0 0 1 2.31-.49h.74a9.28 9.28 0 0 1 1.13.12 10.93 10.93 0 0 1 1.24.28l.44.14a4.52 4.52 0 0 0-1-2.73 3.72 3.72 0 0 0-1-.88 2.29 2.29 0 0 0-1.16-.32 5 5 0 0 0-.94.18l-1.7.39-2.23.58-.49.12-.93-3.3.5-.14c.85-.23 1.66-.44 2.42-.62s1.29-.3 1.91-.43a7.91 7.91 0 0 1 1.46-.2 5.49 5.49 0 0 1 2.58.64 6.88 6.88 0 0 1 2.07 1.67 8.45 8.45 0 0 1 1.38 2.33 7.36 7.36 0 0 1 .52 2.73v10.45l1.08 1-2.49 2.49-1.16-1.16zM121.62 66.45V57.3h5.1v.76h-4.26v3.16h3.58v.76h-3.58v3.71h4.39v.76h-5.23zm-5.51-4.84c1.55 0 2.34-.62 2.34-1.84s-.7-1.72-2.34-1.72h-1.65v3.56zm2.48 4.84l-2.41-4.11h-1.72v4.11h-.84V57.3h2.66c2 0 3.05.83 3.05 2.47a2.43 2.43 0 0 1-2.22 2.51l2.47 4.17zm15.84 0l-2.9-5.07-1.68 1.93v3.14H129V57.3h.85v4.81l4.18-4.81h1.03l-2.95 3.43 3.29 5.72h-.97zm2.55 0V57.3h.84v8.39h4.11v.76h-4.95zm10.63-3.81l-.52-1.52-.18-.53c-.26-.76-.5-1.49-.73-2.29-.28 1-.57 1.83-.91 2.82l-.52 1.52zm1.29 3.81l-1-3.06h-3.38l-1 3.06h-.87l3.24-9.15h.78l3.22 9.15zm8.8 0v-6c0-.56 0-1.24.05-1.83l-.5 1.42-2 5.41h-.7l-2-5.41-.52-1.46v7.87h-.79V57.3h1.06l2.7 7.08.61-1.76 1.88-5.32h1.07v9.15zm19.61 0v-6c0-.56 0-1.24.05-1.83l-.5 1.42-2 5.41h-.7l-2-5.41-.52-1.46v7.87H171V57.3h1.06l2.52 7.08.61-1.76 1.88-5.32h1.07v9.15zm3.67 0V57.3h5.1v.76h-4.25v3.16h3.58v.76h-3.58v3.71h4.39v.76h-5.24zm9.49-.75c2.17 0 3.37-1.37 3.37-3.86s-1.2-3.79-3.37-3.79h-1.26v7.65zm-2.1.75V57.3h2.17c2.69 0 4.18 1.61 4.18 4.54s-1.52 4.61-4.16 4.61zm8.63 0V57.3h.84v9.15H197zm7.44-3.81l-.52-1.52-.18-.53c-.26-.76-.5-1.49-.73-2.29-.28 1-.56 1.8-.91 2.82l-.52 1.52zm1.3 3.81l-1-3.06h-3.38l-1 3.06h-.87l3.24-9.15h.78l3.22 9.15zm18.15 0l-1.65-6.21-.39-1.67c-.06.28-.13.55-.2.82s-.14.55-.21.85l-1.62 6.21H219l-2.08-9.15h.89l1.13 5.35c.19.85.37 1.69.54 2.53.13-.58.27-1.16.41-1.75l.19-.79 1.43-5.34h.79l1.43 5.34.35 1.44.27 1.12.23-1.12.29-1.42L226 57.3h.85l-2.06 9.15zm4.81 0V57.3h5.1v.76h-4.26v3.16h3.58v.76h-3.58v3.71h4.39v.76h-5.23zm9.65-5.22c1.7 0 2.46-.51 2.46-1.66s-.76-1.57-2.38-1.57h-1.5v3.19zm.27 4.49c1.25 0 2.75-.34 2.75-2 0-1.48-1.49-1.79-2.75-1.79h-1.69v3.76zm-2.54.74V57.3h2.52c2 0 3.05.81 3.05 2.28a2 2 0 0 1-1.35 2 2.19 2.19 0 0 1 1.91 2.2c0 1.72-1.25 2.71-3.43 2.71zm10.52-5.23c1.7 0 2.46-.51 2.46-1.66S248.3 58 246.68 58h-1.5v3.19zm.27 4.49c1.25 0 2.75-.34 2.75-2 0-1.48-1.49-1.79-2.75-1.79h-1.69v3.76zm-2.54.74V57.3h2.52c2 0 3.05.81 3.05 2.28a2 2 0 0 1-1.35 2 2.19 2.19 0 0 1 1.91 2.2c0 1.72-1.25 2.71-3.43 2.71z"/></svg>