<?xml version="1.0" encoding="utf-8"?>
<!-- Generator: Adobe Illustrator 19.2.1, SVG Export Plug-In . SVG Version: 6.00 Build 0)  -->
<svg version="1.1" id="Lager_1" xmlns="http://www.w3.org/2000/svg" xmlns:xlink="http://www.w3.org/1999/xlink" x="0px" y="0px"
	 viewBox="0 0 708.7 283.5" style="enable-background:new 0 0 708.7 283.5;" xml:space="preserve">
<style type="text/css">
	.st0{fill:#BED136;}
</style>
<path class="st0" d="M70.4,181.1c-12.1,0-21.5-6.5-24.9-12.8l89-36.5c-5.8-29.3-31.7-51.4-62.6-51.4C36.6,80.4,8,109,8,144.3
	s28.6,63.9,63.9,63.9c22.8,0,42.9-12,54.2-30l-28-12.4C90.6,176.1,79.2,181.1,70.4,181.1z M70.2,108c7,0,18.6,2.7,22.7,10.4
	l-54.7,22.7C38.2,114.5,63.1,108,70.2,108z"/>
<path class="st0" d="M667.4,82.8l-28.3,85.4c-6.3-19.4-18.6-89.5-76.2-89.5c0-10.2,7.7-18.9,23-18.9c0-7,0-28.8,0-28.8h-16.7
	c-13.6,0-39,14-39,48.2c-2.2,0-12.3,0-12.3,0c-29.3,0-52.8,40.7-63.9,88.8c-8-19.2-17.4-90.7-78.6-90.7h-51.8
	c-30.7,0-48.6,19.6-48.6,40.2c0,49.6,78.6,32.9,78.6,52.5c0,6.3-4.8,9-13.3,9c-8.5,0-70.9,0-70.9,0c-10.8,0-14.6-10.9-14.6-26.9
	s0-39.5,0-39.5c0-17.8-23.3-35.4-55.2-35.4s-48.3,17.6-54.3,30.9l27.2,13.4c0,0,7.6-15.6,29-15.6s21.4,10.9,21.4,10.9
	c0,27.6-86-5.1-86,51.9c0,34.1,35.2,39.6,48.3,39.6c13.1,0,32.7-1.1,46.1-19.2c3.3,8,17.4,19.2,32.7,19.2s59.2,0,74.8,0
	s46.8-10.2,46.8-40.7c0-46.8-77.7-33-77.7-50.8c0-3.9,1.8-7.4,7.4-7.4c5.6,0,58.9,0,65,0c15.2,0,21.1,5.9,29,27.5
	c8,21.5,25.7,68,25.7,68c0,10.9-6.5,29.3-19.1,29.3h-9.9v29.3h14.5c62.7,0,63.9-154.1,96.8-154.1h12.8v97.3h31.9v-97.3h10.4
	c22.7,0,41.1,69.8,49.6,97.5c0,2.4-1.5,27.3-30.5,27.3v29.3h19.1c43.1,0,62.9-117.6,91.5-180.5H667.4z M224.1,159.2
	c0,8.5-11.6,21.4-31,21.4s-23.8-6.5-23.8-12.2c0-15.8,44.6-12.2,54.8-18.3V159.2z"/>
</svg>
