<svg id="Lager_1" data-name="Lager 1" xmlns="http://www.w3.org/2000/svg" viewBox="0 0 417.67 57.65"><defs><style>.cls-1{fill:#fff;}.cls-2{fill:#86b77b;}.cls-3{fill:#575756;}</style></defs><title>logo-electra</title><rect class="cls-1" x="88.85" width="52.05" height="57.65"/><path class="cls-2" d="M98.24,0H0V57.65H98.47s25.35-17.86,25.35-28.82C123.82,18.82,98.24,0,98.24,0Z"/><path class="cls-1" d="M64.79,24.85c.19-.49.73-.69,1-.33s0,1.09-.28,1.65a.89.89,0,0,1-.73-.14C64.62,25.86,64.63,25.25,64.79,24.85Zm-9.71,1.72h1.21a3.71,3.71,0,0,1-1.21,1.18A7.78,7.78,0,0,1,55.08,26.58Zm1.82-6.79c1.07-2.65,2.8-4.37,3.22-3.44s-.2,2.51-1.28,5.24a30.3,30.3,0,0,1-1.74,3.71H55.23A27.94,27.94,0,0,1,56.9,19.78Zm-23.61,14A5.36,5.36,0,0,1,34,29.54c.95-1.62,2.08-2.68,2.5-2.39s.25,2.13-.41,3.59C35.18,32.83,34.16,33.68,33.29,33.77ZM17.2,32a2.45,2.45,0,0,1-1.23.34,2.07,2.07,0,0,1-2-2.08,1.35,1.35,0,0,1,1.32-1.35,2.17,2.17,0,0,1,2,2.29A3.23,3.23,0,0,1,17.2,32Zm-4.33-9.83c1,0,1.54.37,1.54,1,0,.33-.2,1-1.31,1-1.43,0-1.88-.41-2-1.24A2.3,2.3,0,0,1,12.86,22.14Zm14-2.26c1.09-2.29,2.32-4,3.12-4.15.45-.09.4,2.51-1.28,5.66-1.14,2.12-2.5,4.57-3.69,4.9C25,25,25.33,23.11,26.87,19.88ZM83.75,38.27c-.24-.22.15-1.09.27-1.48a70.66,70.66,0,0,1,3-7.61H83.18c-1.19,3-2.65,6.15-4.23,7.61s-2.63.3-2.19-2.21,2.6-5.85,4.26-6.93c1.44-.94,2.3-.3,2.25.74.65,0,1.46,0,2.5,0a3.38,3.38,0,0,0-2.35-3c-2-.83-4.86.2-7.29,2.7a12.72,12.72,0,0,0-3.9,8.17,7,7,0,0,1-3,1.94c-2,.52-1.46-1.22-.58-3.06.52-1.08,3-6.05,3.88-7.65-.47-.52-2-2.33-2-2.33a8.47,8.47,0,0,0-1.59,1.2,1.66,1.66,0,0,1-1.22,0c.52-1.35.89-3.27.19-4.5-.79-1.39-4.4-1.45-5.44.89-.87,2-.62,4.16.41,5a4.59,4.59,0,0,0,1.45.79c-2.58,4.85-3.85,6.51-5.6,8-3,2.56-3.39-2.91-3.3-5.45a38.26,38.26,0,0,0,3.2-4.39c1.3,0,2.29.09,2.29.09l.54-1.26s-.84-.06-2.08-.11A22.47,22.47,0,0,0,60.87,22c1.45-4.05,1.63-6.7.46-7.7-2.25-1.93-6.41.76-9.06,10.13-.08.29-.16.59-.24.89l-2.27.08,0,1.26,2-.06a29.08,29.08,0,0,0-1,7.56,9.49,9.49,0,0,1-4,2.41c-2.76.75-3.44-1.57-3.06-4.24.88-6.1,3.93-5.54,3.6-4.94-.48-.09-1.33.47-1.3,1.65.07,2.34,2.62,2.24,3.54.88a2.87,2.87,0,0,0-1.14-4.19c-1.4-.8-5.59-.59-7.6,3.85a15.43,15.43,0,0,0-1.36,5.25,6.38,6.38,0,0,1-3.32,2.21A1.64,1.64,0,0,1,34,36a13.23,13.23,0,0,0,3.48-3.2c1.27-1.75,2.65-5.7.69-7-1.7-1.14-5.23-.48-7.78,3.33a9.89,9.89,0,0,0-1.3,8.26,3.6,3.6,0,0,1-4.23-.77c-1.07-1.25-.71-5.24-.45-6.87,1.08-.65,3.35-2.42,6.08-6.71,3.06-4.82,2.54-8.81,1.23-9.41-3.12-1.42-5.78,1.69-8.37,6.64a36,36,0,0,0-3.43,10.3c-.19-3.26-3.32-4.15-5.23-4.16S9.8,27.66,9.8,30.57c0,3.26,2.39,4.15,4.6,4.13a5.91,5.91,0,0,0,1.71-.21,4.75,4.75,0,0,1-3.95,2.58,5.75,5.75,0,0,1-5.72-5.9A11.31,11.31,0,0,1,8,25.79a9.17,9.17,0,0,0,4,.6c3.9-.06,5-1.58,5.12-3.22s-1.16-2.63-3.35-2.68a9,9,0,0,0-3,.42c0-.12,0-.23,0-.34,0-1.9.81-5.67,4-5.78a2,2,0,0,1,1.9.88,1.69,1.69,0,0,0-1.36,1.87,1.84,1.84,0,0,0,2,1.84c1.52,0,2.26-1.1,2.34-2.69s-1.1-4.18-5.1-4.26c-5.47-.11-9.37,4-9.51,7.9a5.66,5.66,0,0,0,1,3.44A9.21,9.21,0,0,0,.41,32.64c.11,5,4.57,7.9,9.78,7.9,4.46,0,8.38-2.45,9.46-7.3a9.25,9.25,0,0,0,.82,4.65c1.78,3.26,6,2.81,7.59,2.29a4.47,4.47,0,0,0,2.08-1.23c2.48,2.29,6.08,2.24,9.52-1.51A3.77,3.77,0,0,0,40.52,39c2.48,2.64,6.94,1.68,10.64-2.31.05.16.11.31.17.47,1.73,4.14,6.16,4.39,9.28.78a50.52,50.52,0,0,0,5.71-9.29c.28,0,.56-.07.84-.12-1.08,1.76-1.93,3.9-3.16,6.29-1.36,2.64-.66,4.33.49,5.09,2.06,1.35,5.81.11,8-1.62l.07.18c.76,2,2.18,2.26,4.44,1.46A9.13,9.13,0,0,0,80.21,38a2.5,2.5,0,0,0,.56,1.71c.77.9,3,1,4.14.26a4.27,4.27,0,0,0,1.81-2.31H85.06C84.76,38.24,84,38.53,83.75,38.27Z"/><path class="cls-3" d="M417.67,0H105s28.57,18.82,28.57,28.83c0,2.84-1.84,6.14-4.56,9.48h0c-6.3,7.73-17.35,15.63-21.31,18.36l-1.47,1H417.67Z"/><path class="cls-1" d="M154.69,23.35H163v2h-3.11v9.23h-2.14V25.32h-3Z"/><path class="cls-1" d="M169.21,23.35h2.43l3.65,11.21H173l-.8-2.48h-3.68l-.81,2.48h-2.3Zm2.5,6.83-1.26-4-1.35,4Z"/><path class="cls-1" d="M179.8,23.35h2.05V28h.9l2.85-4.69h2.5L184.67,29l3.43,5.59h-2.5l-2.85-4.62h-.89v4.63H179.8Z"/><path class="cls-1" d="M192.29,25.67a2.14,2.14,0,0,1,2.43-2.33s4,.11,4.93.24v1.78h-4.43c-.8,0-.8.45-.8.86V28l4.53.15V29.9l-4.53.14v1.75c0,.81.5.8,1,.8h4.27v1.76c-.87.12-4.78.26-4.78.26-1,0-2.59-.18-2.59-2.25Z"/><path class="cls-1" d="M204.21,26.15c0-2.22,1.32-2.86,3-2.89a17.27,17.27,0,0,1,4.33.44v1.69c-1-.09-3.2-.15-3.75-.15-.93,0-1.47,0-1.47,1.09v.55c0,.89.34,1.07,1.2,1.07h1.78c2.21,0,2.65,1.73,2.65,3v.75c0,2.54-1.58,3-3.09,3a15.11,15.11,0,0,1-4.33-.46V32.54c.61.06,2.48.17,3.91.17.64,0,1.38-.11,1.38-1v-.6c0-.64-.18-1.06-1-1.06h-1.72a2.61,2.61,0,0,1-2.89-3Z"/><path class="cls-1" d="M224,23.35h4.63c2.31,0,3.15,1.38,3.15,3a2.23,2.23,0,0,1-1.53,2.39,2.35,2.35,0,0,1,1.71,2.53c0,2.08-.95,3.29-3.31,3.29H224Zm4.49,4.44c.78,0,1.18-.47,1.18-1.27,0-1-.63-1.27-1.18-1.27h-2.34v2.54Zm.09,4.87c.64,0,1.24-.31,1.24-1.49,0-.83-.34-1.58-1.24-1.58h-2.44v3.06Z"/><path class="cls-1" d="M236.6,23.35h2.14v6.31c0,2.56.57,3,2.18,3,1.42,0,2.08-.52,2.08-3V23.35h2.16v6.31c0,4.95-2.39,5-4.24,5-2.08,0-4.32.12-4.32-5Z"/><path class="cls-1" d="M250,26.15c0-2.22,1.32-2.86,3-2.89a17.27,17.27,0,0,1,4.33.44v1.69c-1-.09-3.2-.15-3.75-.15-.93,0-1.47,0-1.47,1.09v.55c0,.89.34,1.07,1.19,1.07h1.78c2.2,0,2.65,1.73,2.65,3v.75c0,2.54-1.58,3-3.09,3a15.1,15.1,0,0,1-4.33-.46V32.54c.61.06,2.48.17,3.91.17.64,0,1.38-.11,1.38-1v-.6c0-.64-.18-1.06-1-1.06h-1.71a2.61,2.61,0,0,1-2.89-3Z"/><path class="cls-1" d="M262.54,23.35h2.14V34.56h-2.14Z"/><path class="cls-1" d="M269.67,23.35h2.17l4.44,7.24V23.35h2.14V34.56h-2.14l-4.46-7.17v7.17h-2.16Z"/><path class="cls-1" d="M283.37,25.67a2.15,2.15,0,0,1,2.44-2.33s4,.11,4.93.24v1.78h-4.43c-.79,0-.79.45-.79.86V28l4.53.15V29.9l-4.53.14v1.75c0,.81.5.8.95.8h4.27v1.76c-.87.12-4.78.26-4.78.26-1,0-2.59-.18-2.59-2.25Z"/><path class="cls-1" d="M295.3,26.15c0-2.22,1.32-2.86,3-2.89a17.26,17.26,0,0,1,4.33.44v1.69c-1-.09-3.2-.15-3.75-.15-.93,0-1.47,0-1.47,1.09v.55c0,.89.34,1.07,1.19,1.07h1.78c2.21,0,2.65,1.73,2.65,3v.75c0,2.54-1.58,3-3.09,3a15.1,15.1,0,0,1-4.33-.46V32.54c.61.06,2.48.17,3.91.17.64,0,1.38-.11,1.38-1v-.6c0-.64-.18-1.06-1-1.06H298.2a2.61,2.61,0,0,1-2.89-3Z"/><path class="cls-1" d="M307.71,26.15c0-2.22,1.32-2.86,3-2.89a17.27,17.27,0,0,1,4.33.44v1.69c-1-.09-3.2-.15-3.75-.15-.93,0-1.47,0-1.47,1.09v.55c0,.89.34,1.07,1.19,1.07h1.78c2.2,0,2.65,1.73,2.65,3v.75c0,2.54-1.58,3-3.09,3a15.12,15.12,0,0,1-4.33-.46V32.54c.61.06,2.48.17,3.91.17.64,0,1.38-.11,1.38-1v-.6c0-.64-.18-1.06-1-1.06H310.6a2.61,2.61,0,0,1-2.89-3Z"/><path class="cls-1" d="M327.43,25.7a2.17,2.17,0,0,1,2.43-2.36s4,.11,4.93.24v1.78h-4.43c-.79,0-.79.45-.79.86V28l4.53.15V29.9l-4.53.14v4.52h-2.15Z"/><path class="cls-1" d="M343.71,23.27c2.65,0,4.5.51,4.5,5.76,0,4.95-1.75,5.59-4.5,5.59s-4.5-.49-4.5-5.59C339.21,23.78,341.14,23.27,343.71,23.27Zm0,9.37c1.81,0,2.36-.6,2.36-3.62,0-3.49-.66-3.78-2.36-3.78s-2.36.21-2.36,3.78C341.35,32.09,341.8,32.64,343.71,32.64Z"/><path class="cls-1" d="M352.87,23.35h4.9c1.76,0,3.06.81,3.06,3.49s-1.16,3.11-1.79,3.31l2.13,4.41h-2.42l-1.85-4.24L355,30.1v4.46h-2.14Zm4.7,5.07c.74,0,1.1-.21,1.1-1.58s-.43-1.59-1.1-1.59H355v3.17Z"/><path class="cls-1" d="M367.19,23.35l2.48,8.32,2-8.32H374l-.78,2.89L375,31.71,377,23.35h2.27l-3.08,11.21h-2.48L372.23,30l-1.32,4.59h-2.48l-3.52-11.21Z"/><path class="cls-1" d="M385.34,23.35h2.43l3.65,11.21h-2.28l-.8-2.48h-3.68l-.81,2.48h-2.3Zm2.5,6.83-1.26-4-1.35,4Z"/><path class="cls-1" d="M395.78,23.35h4.9c1.76,0,3.06.81,3.06,3.49s-1.16,3.11-1.79,3.31l2.13,4.41h-2.42l-1.85-4.24-1.88-.22v4.46h-2.14Zm4.7,5.07c.74,0,1.1-.21,1.1-1.58s-.43-1.59-1.1-1.59h-2.54v3.17Z"/><path class="cls-1" d="M408.6,23.35h4.76c3.22,0,3.89,2.88,3.89,5.65,0,3.29-1.16,5.56-3.89,5.56H408.6Zm4.59,9.3c1.39,0,1.91-1.41,1.91-3.66,0-3-.72-3.74-1.91-3.74h-2.45v7.4Z"/></svg>