<svg xmlns="http://www.w3.org/2000/svg" width="461" height="103" viewBox="0 0 461 103">
  <g fill="currentColor" fill-rule="evenodd">
    <path d="M39.7928,49.1112 C39.5748,41.5462 34.6408,35.6262 25.3228,35.6262 C16.6638,35.6262 11.4008,42.3152 10.9628,49.1112 L39.7928,49.1112 Z M50.2068,65.8842 C47.2488,75.2022 38.8068,82.5452 26.5288,82.5452 C12.3878,82.5452 -0.0002,72.2412 -0.0002,54.3722 C-0.0002,37.8212 11.9498,26.5282 25.2128,26.5282 C41.4378,26.5282 50.5368,37.7112 50.5368,54.1552 C50.5368,55.4702 50.4268,56.7842 50.3168,57.4432 L10.6338,57.4432 C10.8538,66.8712 17.6488,73.4472 26.5288,73.4472 C35.0798,73.4472 39.3548,68.7332 41.3288,62.8132 L50.2068,65.8842 Z"></path>
    <polygon points="63.699 80.902 74.003 80.902 74.003 1.536 63.699 1.536"></polygon>
    <polygon points="93.41 102.936 106.564 75.092 83.873 28.173 95.713 28.173 112.154 64.568 127.942 28.173 139.012 28.173 104.703 102.936"></polygon>
    <path d="M152.1761,63.909 C152.8321,69.392 157.0001,73.776 164.4521,73.776 C170.2621,73.776 173.4431,70.488 173.4431,66.761 C173.4431,63.472 171.0311,60.951 166.6441,59.965 L157.6561,57.989 C149.4341,56.237 144.5011,50.647 144.5011,43.192 C144.5011,34.203 152.9421,26.528 163.2461,26.528 C177.7181,26.528 182.2121,35.956 183.3081,40.67 L174.2101,44.068 C173.7701,41.329 171.5781,35.299 163.2461,35.299 C157.9861,35.299 154.4781,38.698 154.4781,42.315 C154.4781,45.493 156.4501,47.795 160.5081,48.672 L169.0561,50.537 C178.5941,52.619 183.6371,58.43 183.6371,66.212 C183.6371,73.667 177.3881,82.545 164.3431,82.545 C149.8741,82.545 143.7351,73.227 142.8581,67.197 L152.1761,63.909 Z"></path>
    <polygon points="197.348 80.903 207.542 80.903 207.542 28.174 197.348 28.174"></polygon>
    <path d="M244.2669 82.5447C231.9909 82.5447 224.5349 73.3367 224.5349 61.3877L224.5349 28.1737 234.8389 28.1737 234.8389 59.8557C234.8389 67.0907 238.1269 73.4467 246.7879 73.4467 255.1209 73.4467 259.2849 67.9667 259.2849 59.9647L259.2849 28.1737 269.5879 28.1737 269.5879 71.1457C269.5879 75.3127 269.9179 79.0367 270.1379 80.9017L260.2709 80.9017C260.0539 79.6957 259.8339 76.7347 259.8339 74.5427 256.9829 80.0257 250.4069 82.5447 244.2669 82.5447M287.139 80.9022L287.139 28.1732 297.004 28.1732 297.004 35.1892C300.292 29.3802 306.871 26.6382 313.008 26.6382 319.587 26.6382 325.944 29.8162 328.795 36.6152 332.959 29.0502 339.755 26.6382 346.445 26.6382 355.653 26.6382 364.64 32.8872 364.64 46.6992L364.64 80.9022 354.447 80.9022 354.447 47.7952C354.447 40.8892 351.048 35.7362 343.266 35.7362 336.031 35.7362 331.097 41.4392 331.097 49.0012L331.097 80.9022 320.793 80.9022 320.793 47.7952C320.793 40.9992 317.504 35.7362 309.61 35.7362 302.267 35.7362 297.333 41.2192 297.333 49.1112L297.333 80.9022 287.139 80.9022zM412.7855 59.5252L412.7855 57.1132 402.4815 58.7582C398.9735 59.3052 396.3425 60.9512 396.3425 64.7892 396.3425 67.6372 398.2075 70.3792 402.8115 70.3792 407.7455 70.3792 412.7855 67.9662 412.7855 59.5252M396.0145 49.4412L408.8415 47.4652C411.7995 47.0292 412.7855 45.6032 412.7855 43.7412 412.7855 40.5602 410.0475 37.8212 404.7835 37.8212 398.9735 37.8212 395.7955 41.7662 395.4665 45.8232L380.9975 42.8612C381.6535 35.0792 388.8895 24.7752 404.8935 24.7752 422.5435 24.7752 429.0125 34.6402 429.0125 45.8232L429.0125 72.4612C429.0125 76.7352 429.5585 80.3532 429.6695 80.9022L414.6505 80.9022C414.5415 80.4622 414.1015 78.4902 414.1015 74.7622 411.2535 79.3672 405.9895 82.4352 398.7545 82.4352 386.8065 82.4352 379.9015 74.5432 379.9015 65.8842 379.9015 56.2372 387.0245 50.7562 396.0145 49.4412M443.052 80.902L459.713 80.902 459.713 26.418 443.052 26.418 443.052 80.902zM451.275 0C456.754 0 461.139 4.385 461.139 9.758 461.139 15.128 456.754 19.513 451.275 19.513 446.011 19.513 441.626 15.128 441.626 9.758 441.626 4.385 446.011 0 451.275 0z"></path>
  </g>
</svg>