<svg xmlns="http://www.w3.org/2000/svg" viewBox="0 0 300 300"><defs><style>.cls-1{fill:#1f1f1f;}.cls-2{fill:#e5e5e5;}</style></defs><g id="Lager_2" data-name="Lager 2"><g id="Lager_1-2" data-name="Lager 1"><rect class="cls-1" width="300" height="300"/><path class="cls-2" d="M52.82,88.34V84.67h28v3.67Zm29-23.14a18.69,18.69,0,0,0-5.4-.82,11.85,11.85,0,0,0-4.69.87,6.6,6.6,0,0,0-3.26,3.31,16.22,16.22,0,0,0-1.22,7v60H63V74.27q0-7.44,3.62-10.75A13.26,13.26,0,0,1,76,60.2a20.32,20.32,0,0,1,3,.21,24.22,24.22,0,0,1,3,.61Zm10.81,70.43v-75h4.18v75Z"/><path class="cls-2" d="M134.25,136.34a21,21,0,0,1-19.87-12.48,32.22,32.22,0,0,1-2.86-14,31.9,31.9,0,0,1,2.86-13.91,22.48,22.48,0,0,1,31.8-9.23,21.52,21.52,0,0,1,7.9,9.23,32.34,32.34,0,0,1,2.8,13.91,32.66,32.66,0,0,1-2.8,14,20.88,20.88,0,0,1-19.83,12.48Zm-.1-4.18q8.67,0,13.41-5.75t4.74-16.57q0-10.4-4.79-16.31t-13.26-5.91q-8.46,0-13.3,5.91t-4.84,16.31q0,10.81,4.69,16.57T134.15,132.16Z"/><path class="cls-2" d="M184.2,135.63l-17.84-51h4.69L188,134.41h-2.65l17.94-49.74h5.3L226,134.41h-2.75l17.53-49.74h4.48l-18,51h-5.09L204.18,85.28h3.26l-18,50.35Z"/><path class="cls-2" d="M63,224V149h4.18V186.9l-1-.61a18.4,18.4,0,0,1,6.68-10.76,20,20,0,0,1,12.38-3.72A21.93,21.93,0,0,1,97.12,175a21.68,21.68,0,0,1,7.95,9.13A31.58,31.58,0,0,1,107.92,198a32.46,32.46,0,0,1-2.85,14.06,22,22,0,0,1-8,9.33,21.44,21.44,0,0,1-11.87,3.31A20,20,0,0,1,72.81,221a18.44,18.44,0,0,1-6.68-10.85l1.12-.51V224Zm22.32-3.47q8.35,0,13.15-6T103.23,198q0-10.5-4.79-16.26T85.19,176q-8.67,0-13.3,5.81t-4.64,16.41q0,10.6,4.64,16.46T85.29,220.53Z"/><path class="cls-2" d="M121.37,152.65H128v6.52h-6.63ZM122.5,224V173h4.17v51Z"/><path class="cls-2" d="M164.69,224.71a21.64,21.64,0,0,1-20.44-12.53,30.93,30.93,0,0,1-2.9-13.76,31.87,31.87,0,0,1,2.9-14,22.05,22.05,0,0,1,8.16-9.32,22.71,22.71,0,0,1,12.38-3.32,25.89,25.89,0,0,1,9.64,1.84,21.61,21.61,0,0,1,7.69,5l-2,3.67a34.54,34.54,0,0,0-7.74-4.89,19,19,0,0,0-7.55-1.53q-8.65,0-13.76,6.07t-5.09,16.56q0,10.39,5,16.2t13.71,5.81a19.53,19.53,0,0,0,7.6-1.52,35.35,35.35,0,0,0,7.79-4.8l2,3.57a23.14,23.14,0,0,1-7.85,5.05A25.58,25.58,0,0,1,164.69,224.71Z"/></g></g></svg>