<svg id="Layer_1" xmlns="http://www.w3.org/2000/svg" viewBox="0 0 333.9 63.9"><style>.st0{fill:#707273}.st1{fill:#ef8a06}</style><path class="st0" d="M79.5 47.8V16.9h3.4v13.7h14.9V16.9h3.5v30.9h-3.5V33.6H82.9v14.2zM117.5 36.9l-9.9-20h3.7l7.9 16.7 7.9-16.7h3.8l-9.9 20v10.9h-3.5zM145.3 16.6c4.3 0 6.4.5 8.3 2 2 1.6 3.3 4.4 3.3 7.3 0 2.9-1.3 5.9-3.2 7.3-2.1 1.6-4.2 2.1-8.1 2.1h-5v12.1h-3.4V16.6h8.1zm-4.7 15.6h4.9c2.6 0 4.2-.3 5.7-1.3 1.4-.9 2.3-2.8 2.3-5s-1-4.2-2.4-5c-1.5-1-3.1-1.3-5.8-1.3h-4.8v12.6zM163.6 16.6h17.1v3H167v10.7h13.6v3.1H167v11h13.7v3h-17.1zM189 16.6h8.1c4.8 0 7.1.6 8.7 1.6 2.5 1.5 4.2 4.8 4.2 8.3.1 2.1-.6 4.3-1.8 6-1.9 2.5-4.1 3.1-6.9 3.4l7.7 11.5h-3.8l-8.7-13.5h1c2.2 0 5.2-.1 6.8-1.6 1.6-1.6 2.3-3.5 2.3-5.7 0-2.3-1.1-4.7-3.1-6-1.5-1-3.5-1.1-6.3-1.1h-4.8v27.8H189V16.6zM242.8 24.6c-1-1.3-2.1-2.5-3.4-3.3-2-1.4-4.5-2.2-7.2-2.2-6.8 0-12.7 5.2-12.7 12.9 0 7.9 5.9 13 12.7 13 3.3 0 6.1-1.1 8.3-2.8 2.2-1.7 3.7-4 4.2-6.4h-15.4V33h19.4c-.1 1.8-.4 4-1.4 6-2.7 5.8-8.8 9.1-15.1 9.1-9 0-16.1-6.9-16.1-16 0-9.2 7.3-15.9 16.2-15.9 6.2 0 12 3.5 14.5 8.6h-4zM256.4 16.6h17.2v3h-13.7v10.7h13.6v3.1h-13.6v11h13.7v3h-17.2zM303.6 42.3V16.6h3.3v30.8h-3.3l-18.3-26v26H282V16.6h3.5zM316.8 16.6h17.1v3h-13.6v10.7h13.5v3.1h-13.5v11h13.6v3h-17.1z"/><path class="st1" d="M38.6 35.3c0 1.8-1.5 3.3-3.3 3.3h-6.6c-1.8 0-3.3-1.5-3.3-3.3v-6.6c0-1.8 1.5-3.3 3.3-3.3h6.6c1.8 0 3.3 1.5 3.3 3.3v6.6zM23.1 34c0 1.1-.9 2-2 2h-4c-1.1 0-2-.9-2-2v-4c0-1.1.9-2 2-2h4c1.1 0 2 .9 2 2v4zM12.8 33.6c0 .9-.7 1.6-1.6 1.6H7.9c-.9 0-1.6-.7-1.6-1.6v-3.3c0-.9.7-1.6 1.6-1.6h3.3c.9 0 1.6.7 1.6 1.6v3.3zM4.1 33c0 .6-.5 1-1 1H1c-.6 0-1-.5-1-1v-2c0-.6.5-1 1-1h2.1c.6 0 1 .5 1 1v2zM24.5 22.5c0 1.1-.9 2-2 2h-4c-1.1 0-2-.9-2-2v-4c0-1.1.9-2 2-2h4c1.1 0 2 .9 2 2v4zM15.9 14.4c0 .9-.7 1.6-1.6 1.6H11c-.9 0-1.6-.7-1.6-1.6v-3.3c0-.9.7-1.6 1.6-1.6h3.3c.9 0 1.6.7 1.6 1.6v3.3zM8.8 7.7c0 .6-.5 1-1 1H5.7c-.6 0-1-.5-1-1v-2c0-.6.5-1 1-1h2.1c.6 0 1 .5 1 1v2zM34.1 3.1c0 .6-.5 1-1 1H31c-.6 0-1-.5-1-1V1c0-.6.5-1 1-1h2c.6 0 1 .5 1 1v2.1zM35.3 11.1c0 .9-.7 1.6-1.6 1.6h-3.3c-.9 0-1.6-.7-1.6-1.6V7.8c0-.9.7-1.7 1.6-1.7h3.3c.9 0 1.6.7 1.6 1.7v3.3zM36 21.1c0 1.1-.9 2-2 2h-4c-1.1 0-2-.9-2-2v-4c0-1.1.9-2 2-2h4c1.1 0 2 .9 2 2v4zM47.5 22.5c0 1.1-.9 2-2 2h-4c-1.1 0-2-.9-2-2v-4c0-1.1.9-2 2-2h4c1.1 0 2 .9 2 2v4zM54.6 14.4c0 .9-.7 1.6-1.6 1.6h-3.3c-.9 0-1.6-.7-1.6-1.6v-3.3c0-.9.7-1.6 1.6-1.6H53c.9 0 1.6.7 1.6 1.6v3.3zM59.3 7.7c0 .6-.5 1-1 1h-2.1c-.6 0-1-.5-1-1v-2c0-.6.5-1 1-1h2.1c.6 0 1 .5 1 1v2zM49 34c0 1.1-.9 2-2 2h-4c-1.1 0-2-.9-2-2v-4c0-1.1.9-2 2-2h4c1.1 0 2 .9 2 2v4zM57.7 33.6c0 .9-.7 1.6-1.6 1.6h-3.3c-.9 0-1.6-.7-1.6-1.6v-3.3c0-.9.7-1.6 1.6-1.6h3.3c.9 0 1.6.7 1.6 1.6v3.3zM64 33c0 .6-.5 1-1 1h-2.1c-.6 0-1-.5-1-1v-2c0-.6.5-1 1-1H63c.6 0 1 .5 1 1v2zM59.3 58.3c0 .6-.5 1-1 1h-2.1c-.6 0-1-.5-1-1v-2.1c0-.6.5-1 1-1h2.1c.6 0 1 .5 1 1v2.1zM54.5 52.9c0 .9-.7 1.6-1.6 1.6h-3.3c-.9 0-1.6-.7-1.6-1.6v-3.3c0-.9.7-1.6 1.6-1.6h3.3c.9 0 1.6.7 1.6 1.6v3.3zM47.6 45.6c0 1.1-.9 2-2 2h-4c-1.1 0-2-.9-2-2v-4c0-1.1.9-2 2-2h4c1.1 0 2 .9 2 2v4zM36 46.9c0 1.1-.9 2-2 2h-4c-1.1 0-2-.9-2-2v-4c0-1.1.9-2 2-2h4c1.1 0 2 .9 2 2v4zM24.5 45.6c0 1.1-.9 2-2 2h-4c-1.1 0-2-.9-2-2v-4c0-1.1.9-2 2-2h4c1.1 0 2 .9 2 2v4zM16 52.9c0 .9-.7 1.6-1.6 1.6H11c-.9 0-1.6-.7-1.6-1.6v-3.3c0-.9.7-1.6 1.6-1.6h3.3c.9 0 1.6.7 1.6 1.6v3.3zM8.8 58.3c0 .6-.5 1-1 1H5.7c-.6 0-1-.5-1-1v-2.1c0-.6.5-1 1-1h2.1c.6 0 1 .5 1 1v2.1zM34.1 62.9c0 .6-.5 1-1 1H31c-.6 0-1-.5-1-1v-2.1c0-.6.5-1 1-1h2c.6 0 1 .5 1 1v2.1zM35.3 56.1c0 .9-.7 1.6-1.6 1.6h-3.3c-.9 0-1.6-.7-1.6-1.6v-3.3c0-.9.7-1.6 1.6-1.6h3.3c.9 0 1.6.7 1.6 1.6v3.3z"/></svg>