<?xml version="1.0" encoding="UTF-8" standalone="no"?>
<svg width="160px" height="40px" viewBox="0 0 160 40" version="1.1" xmlns="http://www.w3.org/2000/svg" xmlns:xlink="http://www.w3.org/1999/xlink" xmlns:sketch="http://www.bohemiancoding.com/sketch/ns">
    <!-- Generator: bin/sketchtool 1.4 (305) - http://www.bohemiancoding.com/sketch -->
    <title>ip-only_Color_Pos_RGB</title>
    <desc>Created with bin/sketchtool.</desc>
    <defs>
        <path id="path-1" d="M0,0.0252015897 L159.860932,0.0252015897 L159.860932,39.6552741 L0,39.6552741"></path>
    </defs>
    <g id="Welcome" stroke="none" stroke-width="1" fill="none" fill-rule="evenodd" sketch:type="MSPage">
        <g id="IP-Only-Desktop-home" sketch:type="MSArtboardGroup" transform="translate(-37.000000, -42.000000)">
            <g id="ip-only_Color_Pos_RGB" sketch:type="MSLayerGroup" transform="translate(37.000000, 42.000000)">
                <path d="M58.5092473,13.9582441 L58.5092473,26.3926512 C59.5902509,26.7277177 61.3793548,26.9138658 63.3549821,26.9138658 C66.7470968,26.9138658 68.1634409,26.0575846 68.1634409,22.297536 L68.1634409,17.9044407 C68.1634409,14.5166884 67.1944086,13.2881109 63.3549821,13.2881109 C62.1621505,13.2881109 59.6646595,13.5859479 58.5092473,13.9582441 L58.5092473,13.9582441 Z M51.9860932,10.5703486 L57.7264516,10.5703486 L57.9873835,11.3894002 C59.6273835,10.5703486 62.5349104,10.235282 63.2431541,10.235282 C68.2754122,10.235282 71.7417921,11.7244668 71.7417921,17.9044407 L71.7417921,22.297536 C71.7417921,28.1050705 68.9835125,29.9665516 63.3549821,29.9665516 C60.932043,29.9665516 59.5155556,29.631485 58.5092473,29.3708777 L58.5092473,34.247958 L61.4540502,34.247958 L61.4540502,37.0401796 L51.9860932,37.0401796 L51.9860932,34.247958 L54.9308961,34.247958 L54.9308961,13.3625702 L51.9860932,13.3625702 L51.9860932,10.5703486 L51.9860932,10.5703486 Z" id="Fill-1" fill="#6E706E" sketch:type="MSShapeGroup"></path>
                <path d="M96.4554839,17.9044407 C96.3436559,13.9582441 94.4425806,13.2881109 91.2369892,13.2881109 C87.6212186,13.2881109 86.0184946,14.2933107 86.0184946,17.9044407 L86.0184946,22.297536 C86.0184946,26.1692734 88.1058065,26.9138658 91.2369892,26.9138658 C94.8154839,26.9138658 96.4554839,25.9458957 96.4554839,22.297536 L96.4554839,17.9044407 L96.4554839,17.9044407 Z M100.033835,22.297536 C100.033835,24.4939405 99.9221505,28.4029075 94.9644444,29.5571689 C93.510681,29.8548627 92.3925448,29.9665516 91.2369892,29.9665516 C90.0443011,29.9665516 88.9632975,29.8548627 87.54681,29.5571689 C82.551828,28.4029075 82.4401434,24.5311701 82.4401434,22.297536 L82.4401434,17.9044407 C82.4401434,15.6706635 82.551828,11.7989261 87.54681,10.6448078 C88.9632975,10.3469708 90.0443011,10.235282 91.2369892,10.235282 C92.3925448,10.235282 93.510681,10.3469708 94.9644444,10.6448078 C99.9221505,11.7989261 100.033835,15.7080363 100.033835,17.9044407 L100.033835,22.297536 L100.033835,22.297536 Z" id="Fill-2" fill="#6E706E" sketch:type="MSShapeGroup"></path>
                <path d="M103.314265,10.5703486 L109.054624,10.5703486 L109.315699,11.3894002 C110.955699,10.5703486 113.304086,10.235282 114.53405,10.235282 C120.460932,10.235282 122.436416,11.9106149 122.436416,17.7182926 L122.436416,26.8392634 L125.381219,26.8392634 L125.381219,29.631485 L118.858065,29.631485 L118.858065,17.9044407 C118.858065,14.5166884 118.186953,13.2881109 114.34767,13.2881109 C113.154982,13.2881109 110.992975,13.5859479 109.837419,13.9582441 L109.837419,26.8392634 L112.782079,26.8392634 L112.782079,29.631485 L103.314265,29.631485 L103.314265,26.8392634 L106.258925,26.8392634 L106.258925,13.3625702 L103.314265,13.3625702 L103.314265,10.5703486" id="Fill-3" fill="#6E706E" sketch:type="MSShapeGroup"></path>
                <path d="M126.536918,3.16179717 L133.395556,3.16179717 L133.395556,26.8392634 L136.340215,26.8392634 L136.340215,29.631485 L126.872401,29.631485 L126.872401,26.8392634 L129.817061,26.8392634 L129.817061,5.95401875 L126.536918,5.95401875 L126.536918,3.16179717" id="Fill-4" fill="#6E706E" sketch:type="MSShapeGroup"></path>
                <path d="M148.45448,26.1692734 L148.529032,26.1692734 L153.901075,10.5703486 L159.860932,10.5703486 L159.860932,13.3625702 L156.916129,13.3625702 L150.840143,28.9242654 C149.237276,33.5778248 148.491756,35.5882244 143.794982,36.8166587 C142.192688,37.1890981 140.515269,37.375103 138.987097,37.4123326 L138.987097,34.3596469 C140.254337,34.3224173 141.633548,34.136126 142.900789,33.8756618 C144.987814,33.3172175 145.882437,32.2747881 146.739785,30.1154701 L140.0681,13.3625702 L137.197849,13.3625702 L137.197849,10.5703486 L143.052043,10.5703486 L148.45448,26.1692734" id="Fill-5" fill="#6E706E" sketch:type="MSShapeGroup"></path>
                <path d="M40.4681004,10.5703486 L47.326595,10.5703486 L47.326595,26.8392634 L50.2713978,26.8392634 L50.2713978,29.631485 L40.8034409,29.631485 L40.8034409,26.8392634 L43.7482437,26.8392634 L43.7482437,13.3625702 L40.4681004,13.3625702 L40.4681004,10.5703486" id="Fill-6" fill="#6E706E" sketch:type="MSShapeGroup"></path>
                <g id="Group-10">
                    <mask id="mask-2" sketch:name="Clip 8" fill="white">
                        <use xlink:href="#path-1"></use>
                    </mask>
                    <g id="Clip-8"></g>
                    <path d="M43.3126882,5.05363468 C43.3126882,3.82734824 44.3081004,2.83317416 45.535914,2.83317416 C46.7637276,2.83317416 47.7591398,3.82734824 47.7591398,5.05363468 C47.7591398,6.27992112 46.7637276,7.2740952 45.535914,7.2740952 C44.3081004,7.2740952 43.3126882,6.27992112 43.3126882,5.05363468" id="Fill-7" fill="#6E706E" sketch:type="MSShapeGroup" mask="url(#mask-2)"></path>
                    <path d="M6.42982079,6.43198981 L21.4663799,6.43198981 L21.4663799,14.0544683 L6.42982079,31.3215666 L6.42982079,39.6638655 L12.8428674,39.6638655 L12.8428674,33.6971028 L27.8810036,16.4284295 L27.8810036,0.0252015897 L6.42982079,0.0252015897 L6.42982079,6.43198981" id="Fill-9" fill="#F0535C" sketch:type="MSShapeGroup" mask="url(#mask-2)"></path>
                </g>
                <path d="M0,6.43241938 L6.42910394,6.43241938 L6.42910394,31.3171277 L0,31.3171277 L0,6.43241938 Z" id="Fill-11" fill="#F0535C" sketch:type="MSShapeGroup"></path>
            </g>
        </g>
    </g>
</svg>