<?xml version="1.0" encoding="utf-8"?>
<!-- Generator: Adobe Illustrator 18.1.1, SVG Export Plug-In . SVG Version: 6.00 Build 0)  -->
<svg version="1.1" id="Lager_1" xmlns="http://www.w3.org/2000/svg" xmlns:xlink="http://www.w3.org/1999/xlink" x="0px" y="0px"
	 viewBox="-410 222 138 118" enable-background="new -410 222 138 118" xml:space="preserve">
<title>Kalmar</title>
<desc>Created with Sketch.</desc>
<g id="Startsida">
	<g id="Startsida-0---test-logga" transform="translate(-80.000000, 0.000000)">
		<g id="Kalmar" transform="translate(80.000000, 0.000000)">
			<path id="Rectangle-Copy-2" fill="#003761" d="M-410,222h138v80.131c0,4.416-3.295,9.393-7.365,11.118l-60.078,25.474
				c-1.014,0.43-2.655,0.428-3.673-0.008l-59.53-25.446c-4.062-1.736-7.354-6.735-7.354-11.139V222z"/>
		</g>
	</g>
</g>
<g>
	<g>
		<path fill="#FFFFFF" d="M-328.746,238.994l-0.083,0.583l-0.616-0.087l0.083-0.583l-0.897-0.126l-0.083,0.583l-0.616-0.087
			l0.083-0.583l-1.127-0.159l-0.217,1.54l0.249,0.035l0,0l0.314,0.044c-0.02,0.173-0.043,0.44-0.045,0.781l-1.042-0.09l-0.009,0.126
			c0,0-0.053,0.641-0.069,0.829c-0.136-0.01-0.35-0.025-0.489-0.035c0.016-0.191,0.079-0.956,0.079-0.956l-1.247-0.078
			c0.063-0.295,0.096-0.532,0.115-0.691l0.572,0.049l0.023-0.251l0.113-1.298l-1.134-0.1l-0.051,0.587l-0.62-0.054l0.029-0.336
			l0.021-0.251l-0.901-0.079l-0.052,0.587l-0.62-0.054l0.029-0.336l0.023-0.251l-1.134-0.1l-0.136,1.55l0.251,0.022l0.316,0.027
			c-0.007,0.108-0.013,0.25-0.012,0.426c0,0.123,0.003,0.264,0.011,0.417l-0.89-0.023l-0.004,0.125c0,0-0.023,0.62-0.029,0.807
			c-0.137-0.004-0.352-0.009-0.49-0.013c0.007-0.189,0.033-0.928,0.033-0.928l-1.041-0.013c0.052-0.366,0.068-0.658,0.072-0.842
			h0.574v-1.555h-1.138v0.589h-0.622v-0.589h-0.905v0.589h-0.621v-0.589h-1.139v1.555h0.569c0.004,0.187,0.021,0.48,0.073,0.852
			l-0.933,0.017l0.007,0.128c0,0,0.024,0.614,0.031,0.805c-0.14,0.003-0.354,0.007-0.49,0.009c-0.007-0.185-0.037-0.93-0.037-0.93
			l-0.139,0.004l-0.862,0.028c0.009-0.163,0.013-0.312,0.013-0.442c0-0.176-0.007-0.318-0.013-0.426l0.322-0.028l0.25-0.022
			l-0.136-1.55l-1.134,0.1l0.023,0.251l0.029,0.336l-0.62,0.054l-0.052-0.587l-0.901,0.079l0.021,0.251l0.029,0.336l-0.62,0.054
			l-0.051-0.587l-1.134,0.1l0.113,1.298l0.021,0.251l0.568-0.049c0.017,0.167,0.055,0.421,0.124,0.738l-0.73,0.051l0.012,0.128
			c0,0,0.051,0.594,0.067,0.782c-0.137,0.009-0.345,0.025-0.478,0.035c-0.019-0.183-0.092-0.907-0.092-0.907l-0.736,0.065
			c-0.003-0.338-0.025-0.605-0.045-0.777l0.569-0.08l-0.216-1.54l-1.127,0.158l0.035,0.25l0.047,0.334l-0.616,0.087l-0.083-0.584
			l-0.895,0.127l0.035,0.249l0.047,0.333l-0.616,0.087l-0.081-0.582l-1.127,0.159l0.181,1.29l0.035,0.25l0.249-0.035l0.314-0.044
			c0.101,0.622,0.514,2.452,2.013,4.208c0.048,0.498,0.229,2.37,0.232,2.395c-0.007,0.128-0.071,0.228-0.192,0.295l0.121,0.221
			c0.144-0.079,0.243-0.195,0.29-0.335c2.865-0.305,6.436-0.466,10.331-0.466c3.9,0,7.473,0.161,10.331,0.466
			c0.04,0.119,0.117,0.22,0.229,0.297l0.141-0.209c-0.096-0.065-0.145-0.153-0.151-0.268c0.003-0.025,0.207-2.125,0.231-2.372
			c1.514-1.763,1.929-3.605,2.032-4.23l0.569,0.08l0.036-0.249l0.181-1.291L-328.746,238.994z M-331.699,241.188
			c0.007,0.248,0.023,0.525,0.057,0.827c-0.305-0.028-0.62-0.054-0.938-0.079c0.019-0.227,0.057-0.678,0.068-0.818
			C-332.364,241.131-331.907,241.17-331.699,241.188z M-329.711,243.393c-0.43-0.048-0.913-0.097-1.439-0.146
			c-0.012-0.043-0.025-0.087-0.036-0.131c-0.068-0.271-0.123-0.546-0.164-0.823c0.746,0.071,1.446,0.148,2.087,0.231
			c-0.123,0.274-0.259,0.544-0.409,0.804C-329.685,243.351-329.699,243.371-329.711,243.393z M-334.001,245.657l-0.084,1.222
			c-1.518-0.093-3.157-0.155-4.881-0.184l0.085-1.229C-337.173,245.497-335.526,245.561-334.001,245.657z M-333.749,245.673
			c1.051,0.068,2.043,0.152,2.953,0.249l-0.117,1.217c-0.907-0.096-1.884-0.177-2.919-0.244L-333.749,245.673z M-341.219,245.193
			c-3.855,0-7.557,0.171-10.447,0.479l-0.049-0.502c2.891-0.313,6.612-0.485,10.496-0.485c3.884,0,7.605,0.172,10.496,0.485
			l-0.048,0.501C-333.659,245.362-337.362,245.193-341.219,245.193z M-349.48,245.729l0.084,1.221
			c-0.743,0.056-1.455,0.119-2.128,0.19l-0.117-1.216C-350.963,245.85-350.241,245.785-349.48,245.729z M-349.229,245.71
			c1.511-0.108,3.158-0.185,4.878-0.227l0.127,1.226c-1.747,0.04-3.401,0.115-4.919,0.222L-349.229,245.71z M-352.747,243.329
			c-0.16-0.277-0.304-0.564-0.432-0.855c0.632-0.082,1.343-0.157,2.115-0.225c-0.043,0.292-0.099,0.582-0.169,0.868
			c-0.009,0.038-0.021,0.075-0.031,0.113c-0.537,0.049-1.025,0.099-1.455,0.147C-352.729,243.36-352.739,243.345-352.747,243.329z
			 M-348.378,242.058c0.113,0.293,0.249,0.604,0.414,0.923c-1.106,0.067-2.132,0.144-3.033,0.224
			c0.087-0.344,0.148-0.673,0.191-0.979C-350.046,242.162-349.231,242.106-348.378,242.058z M-348.366,241.31
			c-0.165-0.558-0.236-1.007-0.266-1.265l2.766-0.243c0.015,0.259,0.023,0.714-0.043,1.292c-0.023,0.201-0.056,0.401-0.092,0.601
			c-0.754,0.027-1.492,0.061-2.204,0.099C-348.263,241.635-348.318,241.473-348.366,241.31z M-346.05,241.95
			c-0.053,0.248-0.116,0.494-0.191,0.738c-0.021,0.069-0.045,0.137-0.068,0.206c-0.469,0.021-0.929,0.045-1.376,0.072
			c-0.027-0.049-0.053-0.096-0.079-0.145c-0.129-0.254-0.245-0.514-0.349-0.778C-347.445,242.007-346.755,241.975-346.05,241.95z
			 M-342.903,241.872c0.085,0.288,0.192,0.592,0.324,0.906c-1.181,0.016-2.344,0.053-3.458,0.102
			c0.104-0.328,0.185-0.643,0.246-0.94C-344.847,241.908-343.878,241.884-342.903,241.872z M-342.859,241.02
			c-0.115-0.57-0.147-1.024-0.155-1.283h2.776c-0.007,0.258-0.039,0.713-0.155,1.283c-0.04,0.198-0.091,0.395-0.144,0.592
			c-0.228-0.001-0.456-0.002-0.682-0.002c-0.498,0-0.997,0.003-1.494,0.009C-342.767,241.42-342.818,241.221-342.859,241.02z
			 M-341.219,241.862c0.202,0,0.406,0.001,0.61,0.001c-0.075,0.241-0.159,0.48-0.253,0.714c-0.025,0.065-0.055,0.128-0.083,0.192
			c-0.092,0-0.183,0-0.274,0c-0.362,0-0.725,0.002-1.086,0.006c-0.028-0.066-0.059-0.131-0.085-0.198
			c-0.093-0.232-0.177-0.469-0.251-0.708C-342.167,241.864-341.693,241.862-341.219,241.862z M-337.464,241.924
			c0.06,0.294,0.137,0.604,0.24,0.928c-1.127-0.045-2.288-0.074-3.444-0.081c0.131-0.314,0.237-0.618,0.322-0.905
			C-339.388,241.872-338.422,241.892-337.464,241.924z M-337.342,241.094c-0.065-0.577-0.057-1.033-0.043-1.291l2.766,0.242
			c-0.031,0.258-0.101,0.707-0.266,1.265c-0.047,0.157-0.099,0.312-0.155,0.466c-0.725-0.039-1.466-0.071-2.213-0.097
			C-337.289,241.485-337.32,241.29-337.342,241.094z M-335.132,242.023c-0.105,0.271-0.224,0.537-0.356,0.797
			c-0.019,0.037-0.04,0.073-0.06,0.11c-0.46-0.025-0.929-0.047-1.406-0.067c-0.019-0.059-0.04-0.117-0.057-0.176
			c-0.076-0.249-0.14-0.5-0.195-0.754C-336.506,241.956-335.811,241.987-335.132,242.023z M-347.004,244.467
			c0.004,0.005,0.007,0.009,0.011,0.014c0.021,0.027,0.044,0.054,0.067,0.081c-1.7,0.079-3.285,0.195-4.682,0.343
			c0.001-0.005,0.004-0.009,0.007-0.014c0.233-0.492,0.408-0.971,0.537-1.428c0.951-0.085,2.047-0.167,3.233-0.238
			C-347.606,243.632-347.335,244.051-347.004,244.467z M-347.552,243.21c0.377-0.022,0.762-0.042,1.155-0.061
			c-0.136,0.369-0.293,0.73-0.477,1.078C-347.123,243.904-347.349,243.563-347.552,243.21z M-346.711,244.456
			c0.004-0.005,0.007-0.01,0.009-0.015c0.241-0.446,0.429-0.884,0.578-1.305c1.174-0.053,2.405-0.091,3.654-0.107
			c0.185,0.408,0.412,0.83,0.693,1.255c0.003,0.005,0.007,0.01,0.009,0.015c0.031,0.045,0.061,0.091,0.092,0.136
			c-1.756,0.006-3.472,0.047-5.09,0.121C-346.747,244.523-346.728,244.489-346.711,244.456z M-342.193,243.026
			c0.324-0.003,0.649-0.005,0.974-0.005c0.055,0,0.108,0,0.163,0c-0.167,0.357-0.357,0.704-0.569,1.035
			C-341.837,243.726-342.026,243.381-342.193,243.026z M-341.484,244.299c0.004-0.005,0.007-0.009,0.009-0.015
			c0.282-0.428,0.51-0.852,0.697-1.262c1.222,0.005,2.45,0.037,3.64,0.085c0.149,0.43,0.341,0.877,0.588,1.333
			c0.003,0.005,0.005,0.011,0.009,0.016c0.011,0.021,0.024,0.043,0.036,0.065c-1.512-0.057-3.098-0.087-4.714-0.087
			c-0.12,0-0.238,0.001-0.357,0.001C-341.545,244.389-341.513,244.344-341.484,244.299z M-336.378,244.226
			c-0.188-0.357-0.35-0.728-0.489-1.107c0.402,0.017,0.798,0.036,1.187,0.057C-335.887,243.541-336.12,243.892-336.378,244.226z
			 M-335.4,243.19c1.488,0.081,2.873,0.185,4.051,0.292c0.128,0.45,0.301,0.925,0.532,1.41c0.003,0.005,0.005,0.011,0.008,0.016
			c-1.616-0.172-3.482-0.3-5.488-0.38c0.013-0.015,0.027-0.031,0.04-0.047c0.004-0.005,0.007-0.009,0.011-0.014
			C-335.907,244.038-335.629,243.607-335.4,243.19z M-351.336,243.489c-0.12,0.405-0.268,0.803-0.445,1.187l-0.012,0.001
			c-0.287-0.335-0.548-0.692-0.782-1.065C-352.201,243.572-351.787,243.53-351.336,243.489z M-331.08,243.506
			c0.441,0.041,0.851,0.083,1.225,0.124c-0.234,0.37-0.494,0.725-0.78,1.057C-330.811,244.304-330.96,243.91-331.08,243.506z
			 M-331.419,243.222c-1.129-0.101-2.441-0.199-3.85-0.277c0.16-0.314,0.293-0.62,0.402-0.907c1.141,0.063,2.239,0.141,3.258,0.233
			C-331.565,242.569-331.505,242.888-331.419,243.222z M-333.503,241.045c-0.012,0.141-0.049,0.592-0.068,0.82
			c-0.394-0.027-0.797-0.052-1.205-0.075c0.103-0.294,0.181-0.566,0.24-0.81C-334.256,240.997-333.661,241.034-333.503,241.045z
			 M-337.927,239.475l0.091-1.047l0.633,0.055l-0.029,0.336l-0.023,0.251l0.252,0.021l0.62,0.055l0.251,0.021l0.021-0.251
			l0.029-0.336l0.401,0.035l-0.031,0.336l-0.021,0.251l0.251,0.022l0.62,0.054l0.251,0.022l0.023-0.251l0.029-0.336l0.632,0.055
			l-0.091,1.048L-337.927,239.475z M-337.618,240.849c0.02,0.248,0.053,0.524,0.105,0.821c-0.265-0.008-0.532-0.016-0.798-0.023
			c0.007-0.217,0.024-0.674,0.028-0.816C-338.148,240.836-337.802,240.844-337.618,240.849z M-339.277,240.813
			c-0.005,0.145-0.021,0.601-0.029,0.813c-0.323-0.005-0.645-0.009-0.967-0.012c0.079-0.292,0.136-0.565,0.179-0.81
			C-339.889,240.806-339.429,240.812-339.277,240.813z M-343.584,239.458v-1.051h0.636v0.589h1.125v-0.589h0.402v0.589h1.125v-0.589
			h0.634v1.051H-343.584z M-343.153,240.813c0.043,0.245,0.1,0.517,0.179,0.809c-0.287,0.003-0.572,0.008-0.857,0.013
			c-0.008-0.219-0.027-0.668-0.032-0.81C-343.72,240.822-343.333,240.816-343.153,240.813z M-344.858,240.85
			c0.005,0.141,0.024,0.592,0.032,0.809c-0.307,0.008-0.613,0.017-0.915,0.028c0.052-0.294,0.085-0.566,0.107-0.813
			C-345.445,240.868-344.992,240.854-344.858,240.85z M-349.224,239.818l-0.092-1.048l0.633-0.055l0.029,0.336l0.021,0.251
			l0.252-0.022l0.62-0.054l0.251-0.022l-0.023-0.251l-0.029-0.336l0.4-0.035l0.029,0.336l0.023,0.251l0.25-0.021l0.62-0.055
			l0.251-0.021l-0.021-0.251l-0.029-0.336l0.632-0.055l0.092,1.047L-349.224,239.818z M-348.704,241.028
			c0.06,0.236,0.137,0.5,0.236,0.783c-0.231,0.013-0.457,0.027-0.682,0.041c-0.017-0.213-0.056-0.648-0.068-0.79
			C-349.098,241.054-348.848,241.037-348.704,241.028z M-350.13,241.92c-0.219,0.017-0.433,0.033-0.644,0.051
			c0.032-0.287,0.048-0.55,0.052-0.787c0.139-0.012,0.393-0.034,0.513-0.045C-350.195,241.276-350.152,241.706-350.13,241.92z
			 M-354.364,240.407l-0.147-1.041l0.629-0.089l0.047,0.334l0.035,0.25l0.249-0.035l0.617-0.087l0.249-0.035l-0.036-0.249
			l-0.047-0.333l0.398-0.056l0.047,0.333l0.035,0.249l0.249-0.035l0.616-0.087l0.251-0.035l-0.036-0.25l-0.047-0.334l0.629-0.088
			l0.145,1.041L-354.364,240.407z M-353.76,240.604l2.749-0.386c0.028,0.257,0.06,0.712,0.024,1.292
			c-0.009,0.161-0.025,0.322-0.044,0.483c-0.826,0.072-1.584,0.153-2.253,0.241c-0.051-0.127-0.099-0.253-0.144-0.381
			C-353.623,241.305-353.717,240.86-353.76,240.604z M-343.971,246.704l-0.128-1.227c0.943-0.021,1.907-0.032,2.881-0.032
			c0.702,0,1.398,0.005,2.087,0.017l-0.085,1.229c-0.656-0.009-1.323-0.015-2.001-0.015
			C-342.157,246.676-343.076,246.685-343.971,246.704z M-328.992,241.852c-0.051,0.145-0.108,0.289-0.167,0.432
			c-0.681-0.089-1.427-0.172-2.225-0.246c-0.021-0.176-0.04-0.352-0.051-0.529c-0.035-0.58-0.003-1.034,0.025-1.291l2.749,0.386
			C-328.704,240.859-328.798,241.305-328.992,241.852z M-328.051,240.407l-3.883-0.546l0.147-1.041l0.628,0.089l-0.047,0.333
			l-0.035,0.249l0.249,0.036l0.616,0.086l0.249,0.035l0.036-0.249l0.047-0.334l0.397,0.055l-0.047,0.335l-0.035,0.249l0.249,0.035
			l0.616,0.087l0.249,0.035l0.035-0.249l0.048-0.333l0.628,0.088L-328.051,240.407z"/>
	</g>
	<path fill="#FFFFFF" d="M-349.521,253.85h0.502v-2.914h-0.502V253.85z M-343.707,250.936h-0.502v2.914h0.502V250.936z
		 M-338.394,250.936h-0.502v2.914h0.502V250.936z M-333.082,250.936h-0.502v2.914h0.502V250.936z M-353.514,262.896
		c0,0,1.698-0.258,1.955-0.296c0.097,0.242,0.754,1.87,0.754,1.87s0.632-1.611,0.725-1.847c0.253,0.029,1.961,0.227,1.961,0.227
		s-1.013-1.374-1.158-1.571c0.145-0.197,1.164-1.58,1.164-1.58s-1.71,0.227-1.968,0.261c-0.093-0.242-0.724-1.876-0.724-1.876
		s-0.659,1.634-0.756,1.874c-0.257-0.038-1.99-0.296-1.99-0.296s1.088,1.42,1.241,1.62
		C-352.459,261.482-353.514,262.896-353.514,262.896z M-352.627,260.204c0.486,0.072,1.322,0.197,1.322,0.197
		s0.309-0.767,0.493-1.224c0.176,0.457,0.471,1.221,0.471,1.221s0.862-0.114,1.344-0.178c-0.284,0.385-0.779,1.058-0.779,1.058
		s0.502,0.682,0.785,1.066c-0.48-0.056-1.35-0.157-1.35-0.157s-0.293,0.747-0.469,1.195c-0.184-0.455-0.495-1.227-0.495-1.227
		s-0.824,0.125-1.302,0.197c0.294-0.394,0.802-1.075,0.802-1.075S-352.325,260.598-352.627,260.204z M-334.32,259.66
		c0,0,1.088,1.42,1.241,1.62c-0.15,0.202-1.206,1.616-1.206,1.616s1.699-0.258,1.955-0.296c0.097,0.242,0.753,1.87,0.753,1.87
		s0.633-1.611,0.726-1.847c0.253,0.029,1.962,0.227,1.962,0.227s-1.013-1.374-1.158-1.571c0.146-0.197,1.164-1.58,1.164-1.58
		s-1.71,0.227-1.967,0.261c-0.093-0.242-0.724-1.876-0.724-1.876s-0.659,1.634-0.755,1.874
		C-332.586,259.919-334.32,259.66-334.32,259.66z M-331.582,259.178c0.176,0.457,0.471,1.221,0.471,1.221s0.862-0.114,1.345-0.178
		c-0.284,0.385-0.78,1.058-0.78,1.058s0.503,0.682,0.786,1.066c-0.48-0.056-1.351-0.157-1.351-0.157s-0.293,0.747-0.469,1.195
		c-0.184-0.456-0.495-1.228-0.495-1.228s-0.824,0.125-1.301,0.197c0.293-0.394,0.802-1.075,0.802-1.075s-0.52-0.678-0.822-1.072
		c0.486,0.072,1.321,0.197,1.321,0.197S-331.766,259.634-331.582,259.178z M-354.409,247.396v23.76c0,3.108,1.006,4.546,3.844,5.496
		c0.002,0.001,9.358,3.067,9.358,3.067l9.358-3.066c2.84-0.951,3.846-2.389,3.846-5.496v-23.76H-354.409z M-328.606,271.156
		c0,2.823-0.866,4.065-3.433,4.924c0,0-8.21,2.69-9.169,3.004c-0.184-0.06-9.168-3.004-9.168-3.004
		c-2.564-0.859-3.43-2.101-3.43-4.924c0,0,0-0.848,0-2.215c0.105-0.031,0.215-0.048,0.326-0.046
		c0.399-0.009,0.762,0.197,0.955,0.535l1.168,2.043c0.195,0.34,0.559,0.551,0.952,0.549c0.393,0.002,0.757-0.208,0.952-0.549
		l1.168-2.043c0.194-0.338,0.556-0.544,0.947-0.535c0.399-0.009,0.762,0.197,0.955,0.535l1.169,2.043
		c0.194,0.34,0.559,0.551,0.951,0.549c0.393,0.002,0.758-0.208,0.952-0.549l1.168-2.043c0.194-0.338,0.556-0.544,0.946-0.535
		c0.399-0.009,0.762,0.197,0.955,0.535l1.168,2.043c0.195,0.34,0.558,0.551,0.949,0.549c0.39,0.002,0.755-0.208,0.949-0.549
		l1.168-2.043c0.194-0.338,0.556-0.544,0.946-0.535c0.399-0.009,0.762,0.197,0.956,0.535l1.168,2.043
		c0.195,0.34,0.559,0.551,0.952,0.549c0.393,0.002,0.757-0.208,0.952-0.549l1.168-2.043c0.194-0.338,0.556-0.544,0.946-0.535
		c0.108-0.002,0.213,0.012,0.313,0.039C-328.606,270.305-328.606,271.156-328.606,271.156z M-344.98,252.929v-2.612h2.084v2.612
		h3.241v-2.612h2.084v2.612h3.242v-2.612h2.084v4.688h-18.065l0.001-4.688h2.087v2.612H-344.98z M-339.245,264.528h4.167v2.482
		h-4.152v-2.25C-339.23,264.682-339.237,264.605-339.245,264.528z M-341.207,262.785c-0.867,0-1.604,0.563-1.869,1.342h-1.128
		v-2.669h6.003v2.669h-1.136C-339.602,263.348-340.339,262.785-341.207,262.785z M-339.632,264.761c0,0,0,1.674,0,2.25h-3.148
		c0-0.576,0-2.25,0-2.25c0-0.867,0.706-1.574,1.574-1.574C-340.338,263.187-339.632,263.893-339.632,264.761z M-347.335,261.056
		v-2.652h3.568c0.119,0.506,0.572,0.883,1.113,0.883c0.13,0,0.254-0.028,0.374-0.07c-0.042,0.12-0.07,0.245-0.07,0.374
		c0,0.573,0.425,1.048,0.976,1.13v0.335H-347.335z M-344.605,261.458v2.669h-2.73v-2.669H-344.605z M-347.335,258.002v-2.595h2.73
		v2.595H-347.335z M-340.973,255.577v-0.17h2.772v2.595h-0.423c-0.07-0.564-0.552-1.003-1.135-1.003
		c-0.129,0-0.254,0.028-0.374,0.07c0.042-0.12,0.07-0.244,0.07-0.374C-340.063,256.146-340.454,255.685-340.973,255.577z
		 M-340.465,256.696c0,0.22-0.097,0.428-0.267,0.57c-0.043,0.036-0.063,0.095-0.065,0.151c-0.003,0.057,0.025,0.117,0.065,0.158
		l0.095,0.095c0.04,0.04,0.101,0.068,0.157,0.065c0.056-0.003,0.115-0.022,0.151-0.065c0.142-0.17,0.349-0.267,0.569-0.267
		c0.409,0,0.742,0.333,0.742,0.742c0,0.409-0.333,0.742-0.742,0.742c-0.22,0-0.428-0.097-0.569-0.267
		c-0.036-0.043-0.095-0.063-0.151-0.066c-0.057-0.003-0.117,0.026-0.157,0.066l-0.095,0.095c-0.04,0.04-0.068,0.101-0.065,0.158
		c0.002,0.056,0.022,0.115,0.065,0.151c0.17,0.142,0.267,0.349,0.267,0.57c0,0.409-0.332,0.742-0.742,0.742
		c-0.409,0-0.742-0.333-0.742-0.742c0-0.221,0.097-0.428,0.267-0.57c0.043-0.036,0.063-0.095,0.065-0.151
		c0.003-0.056-0.025-0.118-0.065-0.158l-0.095-0.095c-0.04-0.04-0.101-0.068-0.157-0.066c-0.056,0.003-0.115,0.022-0.151,0.066
		c-0.141,0.17-0.35,0.267-0.569,0.267c-0.409,0-0.742-0.333-0.742-0.742c0-0.409,0.333-0.742,0.742-0.742
		c0.22,0,0.428,0.097,0.569,0.267c0.036,0.043,0.095,0.063,0.151,0.065c0.057,0.002,0.117-0.026,0.157-0.065l0.095-0.095
		c0.041-0.04,0.068-0.101,0.065-0.158c-0.002-0.056-0.021-0.115-0.065-0.151c-0.17-0.142-0.267-0.349-0.267-0.57
		c0-0.408,0.332-0.742,0.742-0.742C-340.797,255.954-340.465,256.287-340.465,256.696z M-341.374,255.566
		c-0.551,0.082-0.976,0.557-0.976,1.13c0,0.13,0.028,0.254,0.07,0.374c-0.12-0.042-0.245-0.07-0.374-0.07
		c-0.583,0-1.064,0.439-1.134,1.003h-0.415v-2.595h2.829V255.566z M-337.799,264.127v-2.669h2.721v2.669H-337.799z
		 M-340.973,261.056v-0.345c0.519-0.108,0.91-0.569,0.91-1.119c0-0.13-0.028-0.254-0.07-0.374c0.12,0.042,0.245,0.07,0.374,0.07
		c0.541,0,0.995-0.378,1.113-0.883h3.568v2.652H-340.973z M-337.799,258.002v-2.595h2.721v2.595H-337.799z M-347.335,264.528h4.168
		c-0.009,0.077-0.015,0.154-0.015,0.233v2.25h-4.152V264.528z M-334.366,267.444c0.092,0.17,1.73,3.217,2.239,4.161
		c-0.194-0.039-0.363-0.158-0.462-0.33l-1.168-2.043c-0.266-0.467-0.766-0.749-1.304-0.738c-0.53-0.012-1.029,0.271-1.295,0.738
		l-1.169,2.043c-0.123,0.215-0.353,0.347-0.6,0.345c-0.249,0.002-0.477-0.131-0.6-0.345l-1.168-2.043
		c-0.267-0.467-0.766-0.749-1.304-0.738c-0.529-0.012-1.029,0.271-1.296,0.738l-1.168,2.043c-0.123,0.215-0.353,0.347-0.6,0.345
		c-0.253,0.002-0.483-0.131-0.606-0.345l-1.168-2.043c-0.266-0.467-0.766-0.749-1.303-0.738c-0.529-0.012-1.029,0.271-1.296,0.738
		l-1.168,2.043c-0.103,0.18-0.281,0.3-0.481,0.334c0.532-0.99,2.147-3.997,2.237-4.165H-334.366z M-328.606,268.522
		c-0.103-0.02-0.208-0.03-0.313-0.028c-0.529-0.012-1.029,0.271-1.296,0.738l-1.169,2.043c-0.073,0.128-0.184,0.225-0.314,0.283
		l-2.429-4.516h-0.55v-11.635h2.833v-5.492h-2.888v2.612h-2.437v-2.612h-2.888v2.612h-2.438v-2.612h-2.888v2.612h-2.438v-2.612
		h-2.893v5.492h2.975v2.595l0,0v0.401l0,0v8.638h-0.551l-2.421,4.509c-0.124-0.059-0.23-0.154-0.3-0.277l-1.168-2.043
		c-0.266-0.467-0.766-0.749-1.304-0.738c-0.108-0.002-0.218,0.009-0.326,0.032v-20.527h25.2V268.522z"/>
	<g>
		<path fill="#FFFFFF" d="M-393.755,288.964h1.831v4.653h0.045c0.24-0.39,0.495-0.751,0.736-1.096l2.656-3.557h2.267l-3.482,4.308
			l3.707,5.809h-2.161l-2.852-4.638l-0.915,1.081v3.557h-1.831V288.964z"/>
		<path fill="#FFFFFF" d="M-379.316,297.324c0,0.661,0.03,1.306,0.12,1.756h-1.666l-0.135-0.81h-0.045
			c-0.435,0.57-1.201,0.976-2.161,0.976c-1.471,0-2.296-1.066-2.296-2.176c0-1.831,1.636-2.777,4.338-2.762v-0.12
			c0-0.48-0.195-1.276-1.486-1.276c-0.72,0-1.471,0.225-1.966,0.54l-0.36-1.201c0.54-0.33,1.486-0.646,2.641-0.646
			c2.342,0,3.017,1.486,3.017,3.092V297.324z M-381.117,295.508c-1.306-0.015-2.551,0.255-2.551,1.366
			c0,0.72,0.465,1.051,1.05,1.051c0.751,0,1.276-0.48,1.456-1.006c0.045-0.135,0.045-0.27,0.045-0.405V295.508z"/>
		<path fill="#FFFFFF" d="M-377.365,288.408h1.846v10.672h-1.846V288.408z"/>
		<path fill="#FFFFFF" d="M-373.508,293.947c0-0.84-0.03-1.546-0.06-2.176h1.576l0.09,1.081h0.045
			c0.345-0.57,1.006-1.246,2.251-1.246c0.961,0,1.711,0.54,2.026,1.351h0.03c0.255-0.405,0.555-0.705,0.885-0.915
			c0.42-0.285,0.885-0.435,1.501-0.435c1.201,0,2.431,0.826,2.431,3.167v4.308h-1.801v-4.037c0-1.216-0.42-1.936-1.306-1.936
			c-0.63,0-1.096,0.45-1.291,0.975c-0.06,0.165-0.09,0.405-0.09,0.616v4.383h-1.801v-4.233c0-1.021-0.405-1.741-1.26-1.741
			c-0.691,0-1.156,0.54-1.336,1.036c-0.06,0.195-0.09,0.405-0.09,0.615v4.323h-1.801V293.947z"/>
		<path fill="#FFFFFF" d="M-355.107,297.324c0,0.661,0.03,1.306,0.12,1.756h-1.666l-0.135-0.81h-0.045
			c-0.435,0.57-1.201,0.976-2.161,0.976c-1.471,0-2.296-1.066-2.296-2.176c0-1.831,1.636-2.777,4.338-2.762v-0.12
			c0-0.48-0.195-1.276-1.486-1.276c-0.72,0-1.471,0.225-1.966,0.54l-0.36-1.201c0.54-0.33,1.486-0.646,2.641-0.646
			c2.341,0,3.017,1.486,3.017,3.092V297.324z M-356.908,295.508c-1.306-0.015-2.551,0.255-2.551,1.366
			c0,0.72,0.465,1.051,1.05,1.051c0.751,0,1.276-0.48,1.456-1.006c0.045-0.135,0.045-0.27,0.045-0.405V295.508z"/>
		<path fill="#FFFFFF" d="M-353.156,294.127c0-0.991-0.015-1.711-0.06-2.357h1.591l0.075,1.381h0.045
			c0.36-1.021,1.216-1.546,2.011-1.546c0.18,0,0.285,0.015,0.435,0.045v1.726c-0.165-0.03-0.33-0.045-0.555-0.045
			c-0.87,0-1.486,0.555-1.651,1.396c-0.03,0.165-0.045,0.36-0.045,0.555v3.797h-1.846V294.127z"/>
		<path fill="#FFFFFF" d="M-342.86,294.983h0.03c0.18-0.285,0.39-0.6,0.57-0.855l1.786-2.357h2.222l-2.717,2.987l3.092,4.323h-2.266
			l-2.101-3.227l-0.615,0.736v2.491h-1.846v-10.672h1.846V294.983z"/>
		<path fill="#FFFFFF" d="M-333.975,299.245c-2.056,0-3.662-1.411-3.662-3.767c0-2.402,1.576-3.873,3.782-3.873
			c2.176,0,3.632,1.531,3.632,3.752c0,2.687-1.891,3.887-3.737,3.887H-333.975z M-333.915,297.909c1.051,0,1.786-1.021,1.786-2.507
			c0-1.141-0.51-2.461-1.771-2.461c-1.306,0-1.831,1.276-1.831,2.491c0,1.411,0.706,2.477,1.801,2.477H-333.915z"/>
		<path fill="#FFFFFF" d="M-328.707,293.947c0-0.84-0.03-1.546-0.06-2.176h1.576l0.09,1.081h0.045
			c0.345-0.57,1.006-1.246,2.251-1.246c0.961,0,1.711,0.54,2.026,1.351h0.03c0.255-0.405,0.555-0.705,0.885-0.915
			c0.42-0.285,0.885-0.435,1.501-0.435c1.201,0,2.431,0.826,2.431,3.167v4.308h-1.801v-4.037c0-1.216-0.42-1.936-1.306-1.936
			c-0.63,0-1.096,0.45-1.291,0.975c-0.06,0.165-0.09,0.405-0.09,0.616v4.383h-1.801v-4.233c0-1.021-0.405-1.741-1.261-1.741
			c-0.691,0-1.156,0.54-1.336,1.036c-0.06,0.195-0.09,0.405-0.09,0.615v4.323h-1.801V293.947z"/>
		<path fill="#FFFFFF" d="M-315.979,293.947c0-0.84-0.03-1.546-0.06-2.176h1.576l0.09,1.081h0.045
			c0.345-0.57,1.005-1.246,2.251-1.246c0.961,0,1.711,0.54,2.026,1.351h0.03c0.255-0.405,0.555-0.705,0.885-0.915
			c0.42-0.285,0.885-0.435,1.501-0.435c1.201,0,2.431,0.826,2.431,3.167v4.308h-1.801v-4.037c0-1.216-0.42-1.936-1.306-1.936
			c-0.63,0-1.096,0.45-1.291,0.975c-0.06,0.165-0.09,0.405-0.09,0.616v4.383h-1.801v-4.233c0-1.021-0.405-1.741-1.26-1.741
			c-0.691,0-1.156,0.54-1.336,1.036c-0.06,0.195-0.09,0.405-0.09,0.615v4.323h-1.801V293.947z"/>
		<path fill="#FFFFFF" d="M-296.707,296.889c0,0.87,0.03,1.591,0.06,2.191h-1.606l-0.091-1.096h-0.045
			c-0.315,0.51-1.036,1.261-2.357,1.261c-1.321,0-2.536-0.795-2.536-3.182v-4.293h1.846v3.977c0,1.216,0.39,1.996,1.366,1.996
			c0.75,0,1.231-0.51,1.41-0.991c0.075-0.15,0.105-0.36,0.105-0.57v-4.413h1.846V296.889z"/>
		<path fill="#FFFFFF" d="M-294.711,293.947c0-0.84-0.03-1.546-0.06-2.176h1.606l0.09,1.096h0.045
			c0.33-0.57,1.126-1.261,2.341-1.261c1.276,0,2.597,0.826,2.597,3.137v4.338h-1.846v-4.127c0-1.051-0.39-1.846-1.396-1.846
			c-0.736,0-1.246,0.525-1.441,1.081c-0.06,0.15-0.09,0.375-0.09,0.585v4.308h-1.846V293.947z"/>
	</g>
</g>
</svg>
