<?xml version="1.0" encoding="UTF-8"?>
<svg width="159px" height="86px" viewBox="0 0 159 86" version="1.1" xmlns="http://www.w3.org/2000/svg" xmlns:xlink="http://www.w3.org/1999/xlink">
    <!-- Generator: Sketch 42 (36781) - http://www.bohemiancoding.com/sketch -->
    <title>lt_ogo</title>
    <desc>Created with Sketch.</desc>
    <defs></defs>
    <g id="Start" stroke="none" stroke-width="1" fill="none" fill-rule="evenodd">
        <g id="vanlig-webbsida3" transform="translate(-1183.000000, -1989.000000)" fill="#D50032">
            <g id="FOOTER" transform="translate(0.000000, 1678.000000)">
                <g id="lt_ogo" transform="translate(1183.000000, 311.000000)">
                    <polygon id="Fill-1" points="0 37.2245391 0 63.9069739 11.8904025 63.9069739 11.8904025 60.0968 4.07095768 60.0968 4.07095768 37.2245391"></polygon>
                    <path d="M20.5603867,50.1368783 C17.5295363,50.1368783 15.9376875,52.8159652 15.9376875,55.4632696 C15.9376875,58.1423565 17.5295363,60.849487 20.5603867,60.849487 C23.8484679,60.849487 25.3228853,58.1460957 25.3228853,55.4632696 C25.3228853,52.8122261 23.8484679,50.1368783 20.5603867,50.1368783 Z M20.0832048,64.4521391 C14.7820127,64.4521391 12.0083932,59.8791826 12.0083932,55.3548348 C12.0083932,51.0810087 14.8043806,46.5342261 19.9825493,46.5342261 C21.9826123,46.5342261 23.7832282,47.3792696 25.153262,48.9347478 L25.153262,47.0184435 L29.0844203,47.0184435 L29.0844203,63.9062261 L25.153262,63.9062261 L25.153262,62.1357478 C23.8000041,63.6164435 22.0068442,64.4521391 20.0832048,64.4521391 Z M42.5219359,63.9062261 L42.5219359,54.2929217 C42.5219359,51.4231391 42.0727139,50.1368783 39.4351658,50.1368783 C36.1582685,50.1368783 35.9047656,52.6177913 35.9047656,56.1157478 L35.9047656,63.9062261 L31.9698793,63.9062261 L31.9698793,47.0184435 L35.9047656,47.0184435 L35.9047656,48.3832261 C36.9877448,47.2240957 38.5982335,46.5379652 40.3559776,46.5379652 C44.4604871,46.5379652 46.4568222,48.9515739 46.4568222,53.9171391 L46.4568222,63.9062261 L42.5219359,63.9062261 Z M56.6770882,64.4521391 C51.1279851,64.4521391 48.5966845,59.7389652 48.5966845,55.3548348 C48.5966845,51.0810087 51.381488,46.5342261 56.5391528,46.5342261 C58.5597197,46.5342261 60.3733835,47.3792696 61.7434174,48.9347478 L61.7434174,37.070487 L65.6745757,37.070487 L65.6745757,63.9062261 L61.7434174,63.9062261 L61.7434174,62.1357478 C60.3901595,63.6164435 58.5951355,64.4521391 56.6770882,64.4521391 Z M62.3417587,55.4632696 C62.3417587,52.3448348 60.4665831,49.7087478 57.15427,49.7087478 C53.9780283,49.7087478 52.1009888,52.4775739 52.1009888,55.4632696 C52.1009888,58.4732696 53.9127886,61.279487 57.15427,61.279487 C60.500135,61.279487 62.3417587,58.6097478 62.3417587,55.4632696 Z M73.602132,64.4521391 C70.931032,64.4521391 68.5395308,62.8966609 67.6671827,60.5802696 L67.5199274,60.1970087 L70.8862962,58.6714435 L71.0764234,59.0247913 C71.6673087,60.1222261 72.3290257,60.849487 73.602132,60.849487 C74.5900476,60.849487 75.5928751,60.2269217 75.5928751,59.0247913 C75.5928751,58.3667043 75.3170043,58.0769217 74.6608793,57.6394435 L71.6915406,56.0447043 C69.8834687,55.0725304 68.3941394,54.0704435 68.3941394,51.6269217 C68.3941394,48.8207043 70.6980331,46.5342261 73.5331643,46.5342261 C75.609651,46.5342261 77.3357072,47.648487 78.2882069,49.5872261 L78.4690141,49.9574 L75.2144848,51.7054435 L75.0224936,51.2997478 C74.6925671,50.6080087 74.0215301,50.1368783 73.3635411,50.1368783 C72.7726557,50.1368783 72.1183947,50.6117478 72.1183947,51.2829217 C72.1183947,52.2307913 73.4045489,52.8028783 74.8976062,53.4553565 C75.1250132,53.5637913 75.3542841,53.6628783 75.5835551,53.7675739 C77.5332903,54.657487 79.5277614,55.9400087 79.5277614,58.716313 C79.5277614,61.9282261 76.9219011,64.4521391 73.602132,64.4521391 Z" id="Fill-2"></path>
                    <polygon id="Fill-4" points="82.1131177 63.906787 82.1131177 50.7581348 80.4448452 50.7581348 80.4448452 47.0190043 82.1131177 47.0190043 82.1131177 40.8887 86.048004 40.8887 86.048004 47.0190043 89.0546225 47.0190043 89.0546225 50.7581348 86.048004 50.7581348 86.048004 63.906787"></polygon>
                    <path d="M93.0167231,43.2675348 C91.6112734,43.2675348 90.4649185,42.1345783 90.4649185,40.7436217 C90.4649185,39.319013 91.6112734,38.1561435 93.0167231,38.1561435 C94.4147168,38.1561435 95.5610716,39.319013 95.5610716,40.7436217 C95.5610716,42.1345783 94.4147168,43.2675348 93.0167231,43.2675348 L93.0167231,43.2675348 Z M91.0464839,63.9075348 L94.9813702,63.9075348 L94.9813702,47.0197522 L91.0464839,47.0197522 L91.0464839,63.9075348 Z M111.897094,63.9075348 L111.897094,53.9184478 C111.897094,48.9528826 109.902623,46.5392739 105.801842,46.5392739 C104.042233,46.5392739 102.435473,47.2235348 101.35063,48.3826652 L101.35063,47.0197522 L97.4157433,47.0197522 L97.4157433,63.9075348 L101.35063,63.9075348 L101.35063,56.1170565 C101.35063,52.6191 101.59854,50.138187 104.875438,50.138187 C107.51485,50.138187 107.965936,51.4244478 107.965936,54.2942304 L107.965936,63.9075348 L111.897094,63.9075348 Z M122.874141,73.0852304 C118.066906,73.0852304 114.797465,69.9967087 114.722905,65.4013174 L114.713585,64.9601 L118.283129,64.9601 L118.283129,65.3919696 C118.283129,67.914013 120.320472,69.8583609 123.002756,69.8583609 C125.955319,69.8583609 127.398048,67.9009261 127.398048,64.0234478 L127.398048,62.1370565 C126.050382,63.6177522 124.007448,64.4515783 122.083808,64.4515783 C116.536569,64.4515783 114.014589,59.7402739 114.014589,55.3561435 C114.014589,51.0860565 116.791936,46.5355348 121.947737,46.5355348 C123.979488,46.5355348 125.79688,47.3955348 127.150137,48.977187 L127.150137,47.0197522 L131.085024,47.0197522 L131.085024,63.1709261 C131.085024,67.785013 130.277915,73.0852304 122.997164,73.0852304 L122.874141,73.0852304 Z M127.752207,55.4627087 C127.752207,52.3461435 125.871439,49.708187 122.562854,49.708187 C119.394068,49.708187 117.511437,52.4844913 117.511437,55.4627087 C117.511437,58.4727087 119.319509,61.2864043 122.562854,61.2864043 C125.908719,61.2864043 127.752207,58.6110565 127.752207,55.4627087 L127.752207,55.4627087 Z M141.273602,64.4515783 C136.395536,64.4515783 132.990023,60.8115348 132.990023,55.599187 C132.990023,50.0073174 136.142033,46.5355348 141.208362,46.5355348 C146.0827,46.5355348 149.109823,49.9717957 149.109823,55.4963609 L149.109823,56.4087087 L136.695639,56.4087087 C136.626671,58.6895783 138.67147,61.1013174 141.301562,61.1013174 C143.515984,61.1013174 144.884154,59.9907957 145.968997,58.1922739 L146.181492,57.8370565 L149.26267,59.4747957 L149.059495,59.8449696 C147.499334,62.7315783 144.587779,64.4515783 141.273602,64.4515783 L141.273602,64.4515783 Z M145.609246,53.6473609 C145.234584,51.2487087 143.666967,49.6408826 141.208362,49.6408826 C138.814997,49.6408826 137.038613,51.3552739 136.663951,53.6473609 L145.609246,53.6473609 Z" id="Fill-6"></path>
                    <polygon id="Fill-8" points="151.574206 63.906787 151.574206 50.7581348 149.900341 50.7581348 149.900341 47.0190043 151.574206 47.0190043 151.574206 40.8887 155.507228 40.8887 155.507228 47.0190043 158.513847 47.0190043 158.513847 50.7581348 155.507228 50.7581348 155.507228 63.906787"></polygon>
                    <path d="M46.1384524,32.4801435 L62.4912508,32.4801435 C62.4912508,32.4801435 66.5472966,21.4160565 79.2876792,21.4160565 C92.0373819,21.4160565 96.0952916,32.4801435 96.0952916,32.4801435 L112.487234,32.4801435 L112.487234,15.7026652 C112.487234,15.7026652 101.517643,0.312404348 79.3678309,0.00392608696 C79.3678309,0.00392608696 60.5732034,-0.685943478 46.1384524,15.7045348 L46.1384524,32.4801435 Z" id="Fill-10"></path>
                    <path d="M38.038104,74.192013 C37.3987549,74.192013 36.8768373,73.6797522 36.8768373,73.0422304 C36.8768373,72.3953609 37.3987549,71.8625348 38.038104,71.8625348 C38.6849091,71.8625348 39.2086908,72.3953609 39.2086908,73.0422304 C39.2086908,73.6797522 38.6849091,74.192013 38.038104,74.192013 L38.038104,74.192013 Z M37.165756,84.8074043 L38.9197721,84.8074043 L38.9197721,76.5944043 L37.165756,76.5944043 L37.165756,84.8074043 Z" id="Fill-12"></path>
                    <polygon id="Fill-14" points="52.6488159 84.8079652 47.8490375 78.8590087 47.3159359 79.3656609 47.3159359 84.8079652 45.5022721 84.8079652 45.5022721 71.7041826 47.3159359 71.7041826 47.3159359 77.1334 52.617128 71.7041826 55.0160852 71.7041826 49.1258717 77.6157478 55.0887809 84.8079652"></polygon>
                    <path d="M58.8650415,85.0809217 C56.1659817,85.0809217 54.9432032,82.7888348 54.9432032,80.6481826 C54.9432032,78.5673565 56.3001891,76.3575304 58.8128498,76.3575304 C59.880917,76.3575304 60.8203687,76.8492261 61.4988617,77.748487 L61.4988617,76.5949652 L63.2491498,76.5949652 L63.2491498,84.8042261 L61.4988617,84.8042261 L61.4988617,83.7367043 C60.8334167,84.5929652 59.8827809,85.0809217 58.8650415,85.0809217 M61.6927168,80.7005304 C61.6927168,79.1450522 60.755129,77.8288783 59.1054964,77.8288783 C57.5192396,77.8288783 56.5835158,79.2123565 56.5835158,80.7005304 C56.5835158,82.2074 57.4838237,83.6058348 59.1054964,83.6058348 C60.7774969,83.6058348 61.6927168,82.2709652 61.6927168,80.7005304" id="Fill-16"></path>
                    <polygon id="Fill-18" points="65.0943151 84.8046 66.8464672 84.8046 66.8464672 69.7546 65.0943151 69.7546"></polygon>
                    <path d="M78.3033053,84.8079652 L78.3033053,80.1714435 C78.3033053,79.0665304 78.139274,77.9354435 76.9295434,77.9354435 C75.47563,77.9354435 75.2799109,79.3694 75.2799109,80.7640957 L75.2799109,84.8079652 L73.5333507,84.8079652 L73.5333507,80.4630957 C73.5333507,79.1469217 73.3711835,77.9354435 72.1726368,77.9354435 C70.7056754,77.9354435 70.5080923,79.3694 70.5080923,80.7640957 L70.5080923,84.8079652 L68.7578042,84.8079652 L68.7578042,76.5912261 L70.5080923,76.5912261 L70.5080923,77.4194435 C71.016962,76.7669652 71.7979745,76.3575304 72.5491632,76.3575304 C73.5203028,76.3575304 74.2957233,76.802487 74.8493288,77.6774435 C75.3917504,76.8679217 76.3330661,76.3575304 77.3004778,76.3575304 C79.1253256,76.3575304 80.0535934,77.5540522 80.0535934,79.9171826 L80.0535934,84.8079652 L78.3033053,84.8079652 Z M85.1926183,85.0809217 C86.2084937,85.0809217 87.1554014,84.5929652 87.8283024,83.7367043 L87.8283024,84.8042261 L89.5785905,84.8042261 L89.5785905,76.5949652 L87.8283024,76.5949652 L87.8283024,77.748487 C87.1479455,76.8492261 86.2029017,76.3575304 85.1478825,76.3575304 C82.6277658,76.3575304 81.2726439,78.565487 81.2726439,80.6481826 C81.2726439,82.7888348 82.4972864,85.0809217 85.1926183,85.0809217 L85.1926183,85.0809217 Z M88.0240215,80.7005304 C88.0240215,82.2709652 87.1032097,83.6058348 85.4312092,83.6058348 C83.8114005,83.6058348 82.9073645,82.2074 82.9073645,80.7005304 C82.9073645,79.2123565 83.8505443,77.8288783 85.4312092,77.8288783 C87.0845697,77.8288783 88.0240215,79.1450522 88.0240215,80.7005304 L88.0240215,80.7005304 Z M93.2096462,84.8079652 L93.2096462,80.7640957 C93.2096462,79.4984 93.4053653,78.0438783 94.9524783,78.0438783 C95.3290047,78.0438783 95.5862355,78.1317478 95.8248264,78.3392696 L95.92921,78.4327478 L96.7325903,76.819313 L96.6487107,76.7613565 C96.2386326,76.5033565 95.7670427,76.3575304 95.3345966,76.3575304 C94.4193767,76.3575304 93.6514122,76.8249217 93.2096462,77.6307043 L93.2096462,76.5912261 L91.463086,76.5912261 L91.463086,84.8079652 L93.2096462,84.8079652 Z" id="Fill-20"></path>
                    <polygon id="Fill-21" points="101.956613 84.8046 103.701309 84.8046 103.701309 69.7546 101.956613 69.7546"></polygon>
                    <path d="M107.668443,75.0172391 C107.023502,75.0172391 106.522088,74.510587 106.522088,73.8637174 C106.522088,73.2411522 107.03655,72.7345 107.668443,72.7345 C108.29288,72.7345 108.796158,73.2411522 108.796158,73.8637174 C108.796158,74.5012391 108.29288,75.0172391 107.668443,75.0172391 L107.668443,75.0172391 Z M111.265947,75.0172391 C110.624733,75.0172391 110.117728,74.510587 110.117728,73.8637174 C110.117728,73.2411522 110.634053,72.7345 111.265947,72.7345 C111.890384,72.7345 112.395525,73.2411522 112.395525,73.8637174 C112.395525,74.5012391 111.890384,75.0172391 111.265947,75.0172391 L111.265947,75.0172391 Z M108.980693,85.0811087 C106.285361,85.0811087 105.055126,82.7890217 105.055126,80.6483696 C105.055126,78.5675435 106.41584,76.3577174 108.928501,76.3577174 C109.989112,76.3577174 110.941612,76.849413 111.614513,77.7486739 L111.614513,76.5951522 L113.362937,76.5951522 L113.362937,84.804413 L111.614513,84.804413 L111.614513,83.7368913 C110.949068,84.5931522 110.000296,85.0811087 108.980693,85.0811087 L108.980693,85.0811087 Z M111.810232,80.7007174 C111.810232,79.1452391 110.87078,77.8290652 109.219284,77.8290652 C107.634891,77.8290652 106.699167,79.2125435 106.699167,80.7007174 C106.699167,82.207587 107.601339,83.6060217 109.219284,83.6060217 C110.891284,83.6060217 111.810232,82.2711522 111.810232,80.7007174 L111.810232,80.7007174 Z M122.155386,84.8081522 L122.155386,79.9341957 C122.155386,78.4011522 121.857147,76.3577174 119.225191,76.3577174 C118.268963,76.3577174 117.404071,76.7746304 116.897065,77.4682391 L116.897065,76.591413 L115.144913,76.591413 L115.144913,84.8081522 L116.897065,84.8081522 L116.897065,81.0278913 C116.897065,79.5827174 116.897065,77.9375 118.764785,77.9375 C120.170234,77.9375 120.408825,78.6423261 120.408825,80.1230217 L120.408825,84.8081522 L122.155386,84.8081522 Z" id="Fill-22"></path>
                </g>
            </g>
        </g>
    </g>
</svg>