<?xml version="1.0" encoding="utf-8"?>
<!-- Generator: Adobe Illustrator 21.1.0, SVG Export Plug-In . SVG Version: 6.00 Build 0)  -->
<svg version="1.1" id="Lager_1" xmlns="http://www.w3.org/2000/svg" xmlns:xlink="http://www.w3.org/1999/xlink" x="0px" y="0px"
	 viewBox="0 0 822.2 103" style="enable-background:new 0 0 822.2 103;" xml:space="preserve">
<style type="text/css">
	.st0{fill:#010202;}
</style>
<path class="st0" d="M59,24.9c-2.1,0.6-3.8,1.5-5.1,2.7s-2.4,2.6-3,4.4c-0.7,1.7-1,3.6-1,5.8c0,2.2,0.3,4.2,1,5.9
	c0.7,1.8,1.7,3.3,3.1,4.5c1.4,1.2,3.1,2.2,5.1,2.9c2.1,0.7,4.4,1,7.1,1h11.1V24H66.2C63.4,24,61,24.3,59,24.9z"/>
<path class="st0" d="M0.5,103H104V0H0.5V103z M15.2,14.6h12.1v63.8h50V61.7H66.2c-4.7,0-8.8-0.6-12.4-1.8c-3.5-1.2-6.5-2.8-8.9-4.9
	c-2.4-2.1-4.2-4.6-5.4-7.5c-1.2-2.9-1.8-6.1-1.8-9.7c0-3.5,0.6-6.6,1.7-9.5c1.1-2.9,2.9-5.3,5.2-7.3s5.3-3.6,8.9-4.7
	s7.8-1.7,12.7-1.7h23.2v73.8H15.2V14.6z"/>
<polygon class="st0" points="135.4,24.4 125.7,24.4 125.7,84.4 167.8,84.4 167.8,76 135.4,76 "/>
<rect x="172.2" y="38.9" class="st0" width="9.7" height="45.5"/>
<path class="st0" d="M211.1,38c-3.4,0-6.4,0.7-9.1,2.1c-2.7,1.4-4.7,3.5-6.3,6.4l-0.5-7.6h-8.7v45.5h9.7V60.3
	c0-4.8,1.3-8.5,3.6-10.8c2.4-2.3,5.4-3.5,8.8-3.5c6.5,0,9.7,4,9.7,12v26.4h9.7V55c0-5.5-1.6-9.7-4.8-12.6
	C220.3,39.5,216.2,38,211.1,38z"/>
<path class="st0" d="M267.3,45.4c-1.4-2.6-3.3-4.6-5.9-6.1c-2.6-1.5-5.5-2.2-8.8-2.2c-6.2,0-11.2,2.1-14.7,6.3
	c-3.6,4.2-5.5,10-5.5,17.4c0,7.4,1.8,13.2,5.5,17.4c3.6,4.2,8.5,6.2,14.7,6.2c3.5,0,6.5-0.8,9.2-2.5c2.7-1.6,4.7-3.8,6.1-6.5v9h9.1
	V17.7l-9.7,2.7V45.4z M267.3,61.3c0,4.8-1.1,8.5-3.4,11.2c-2.2,2.7-5.2,4.1-9.1,4.1c-4,0-7.1-1.4-9.3-4.2c-2.2-2.8-3.3-6.7-3.3-11.6
	c0-5,1.1-8.8,3.3-11.6c2.2-2.7,5.3-4.2,9.3-4.2c3.8,0,6.8,1.4,9.1,4c2.3,2.7,3.4,6.4,3.4,11.2V61.3z"/>
<path class="st0" d="M344.7,39.9c-2.6-1.3-5.4-1.9-8.4-1.9c-3.3,0-6.4,0.8-9.2,2.3c-2.9,1.5-5.1,3.8-6.4,6.8c-1.4-3-3.4-5.2-6.1-6.8
	c-2.7-1.5-5.8-2.3-9.2-2.3c-3.1,0-6,0.7-8.5,2.2c-2.6,1.4-4.7,3.5-6.2,6.3l-0.5-7.6h-8.7v45.5h9.7V60.2c0-3.2,0.6-5.9,1.7-8
	c1.2-2.2,2.7-3.7,4.5-4.7c1.8-1,3.7-1.5,5.6-1.5c2.8,0,5.1,0.9,6.8,2.6c1.7,1.7,2.5,4.3,2.5,7.9v27.9h9.7V59.7c0-4.3,1.1-7.6,3.4-10
	c2.3-2.4,5.1-3.6,8.4-3.6c2.8,0,5.1,0.9,6.8,2.6c1.7,1.7,2.6,4.3,2.6,7.9v27.9h9.7V55c0-3.7-0.7-6.8-2.3-9.4
	C349.3,43,347.3,41.1,344.7,39.9z"/>
<path class="st0" d="M415.5,47.1l0-8.2h-9.1v45.5h9.7V61.6c0-1.2,0.2-2.1,0.3-2.1c1.1-3.2,6.1-15,16.8-11.7v-5v-4.4
	c-1-0.3-2-0.4-3.4-0.4C422.9,38,418.1,41.1,415.5,47.1z"/>
<polygon class="st0" points="480.5,38.9 469.1,38.9 447.3,61.2 447.3,19 437.6,21.8 437.6,84.4 447.3,84.4 447.3,72.3 456.3,63 
	470.3,84.4 481.6,84.4 463.2,56.7 "/>
<path class="st0" d="M504.6,84.4c-3.7,0-6.8-0.6-9.5-1.9c-2.7-1.2-4.9-3-6.4-5.2c-1.5-2.2-2.2-4.8-2.2-7.5c0-3.6,1.1-6.8,3.1-9.6
	c2.1-2.8,5.8-5.6,10.8-8.2l0.9-0.5l-0.6-0.8c-2.6-3.5-4.4-6.1-5.3-8c-0.9-1.9-1.4-3.9-1.4-6c0-2.2,0.5-4.2,1.5-6
	c1-1.9,2.5-3.4,4.5-4.6c2-1.2,4.4-1.8,7.2-1.8c3.8,0,6.9,0.9,9.5,2.8c2.5,1.9,3.7,4.7,3.7,8.7c0,3.3-0.8,6.1-2.3,8.5
	c-1.5,2.4-4.6,5-9.1,7.6l-0.8,0.5l0.5,0.8c1,1.4,3.1,4,6.1,7.6l3.2,4.1l4.8,5.7l0.6-1c2.7-4.3,4-9.4,4-15.1c0-0.3,0-0.6,0-0.9h4
	l0.1,1.4c0,3.2-0.5,6.5-1.4,9.6c-1,3.1-2.3,6-4,8.5l-0.4,0.6l0.5,0.5c2.4,2.5,4.4,4.2,6.1,5.1c0.9,0.4,1.8,0.7,2.8,1v4
	c-1.7-0.1-3.3-0.5-4.7-1.2c-1.8-0.9-4.2-2.7-6.9-5.5l-0.6-0.6l-0.6,0.6c-2.3,2.2-4.9,3.8-7.8,5C511.3,83.9,508.2,84.4,504.6,84.4z
	 M503.2,55.2c-4.4,2.6-7.5,4.9-9.2,7c-1.6,2.1-2.5,4.5-2.5,7c0,3.3,1.3,5.9,3.8,7.9c2.6,2.1,5.5,3.1,9,3.1c2.8,0,5.5-0.5,8-1.4
	c2.5-1,4.7-2.3,6.8-4.1l0.7-0.6l-0.6-0.6c-2.2-2.3-5.2-5.9-8.3-9.7l-7.2-8.9L503.2,55.2z M507,28.8c-2.5,0-4.6,0.8-6,2.3
	c-1.4,1.6-2.1,3.4-2.1,5.6c0,1.8,0.4,3.4,1.2,5c0.8,1.6,2.4,3.9,4.9,7.2l0.4,0.6l0.6-0.3c3.8-2.1,6.3-4.1,7.6-6.1
	c1.2-2,1.8-4.2,1.8-6.9C515.4,32.7,514,28.8,507,28.8z"/>
<path class="st0" d="M581.1,29.3c-3.8-3.3-8.9-5-15.4-5h-23.1v60h9.7V61.7h13.4c6.5,0,11.6-1.7,15.4-5c3.8-3.3,5.7-7.9,5.7-13.7
	C586.8,37.2,584.9,32.7,581.1,29.3z M573.6,50.9c-2.1,1.8-5.2,2.6-9.5,2.6h-11.8V32.6h11.8c8.4,0,12.6,3.5,12.6,10.5
	C576.7,46.5,575.7,49.1,573.6,50.9z"/>
<path class="st0" d="M630.5,77.2c-0.5-0.5-0.8-1.4-0.8-2.6V54.1c0-5.2-1.7-9.3-5.2-12c-3.5-2.7-8.1-4.1-14-4.1
	c-4.9,0-9.1,1.1-12.4,3.2c-3.4,2.1-5.6,5-6.7,8.7l7.6,4c1.8-5.5,5.7-8.2,11.7-8.2c2.9,0,5.2,0.9,6.8,2.4c1.7,1.6,2.5,3.8,2.5,6.6
	v2.5l-11.6,2c-5.9,1-10.3,2.8-13.3,5.2c-3,2.5-4.5,5.5-4.5,9.1c0,3.8,1.4,6.8,4.1,8.8c2.7,2.1,6.3,3.1,10.8,3.1
	c3.4,0,6.5-0.6,9.2-1.8c2.7-1.2,4.8-2.8,6.2-5c0.5,2.5,1.5,4.2,3.1,5.2c1.5,1,3.6,1.5,6.2,1.5c1.7,0,3.1-0.2,4.4-0.6v-6.8
	c-0.5,0.1-1,0.1-1.5,0.1C631.9,78,631.1,77.8,630.5,77.2z M620,69.3c0,2.6-1.3,4.7-3.7,6.3c-2.5,1.6-5.4,2.4-8.6,2.4
	c-2.2,0-3.9-0.5-5.1-1.3c-1.2-0.9-1.8-2.2-1.8-3.9c0-1.8,0.7-3.3,2.3-4.4c1.5-1.1,3.9-1.9,7-2.6l9.9-2V69.3z"/>
<path class="st0" d="M724.5,38c-3.4,0-6.4,0.7-9.1,2.1c-2.7,1.4-4.8,3.5-6.3,6.4l-0.5-7.6h-8.6v45.5h9.7V60.3
	c0-4.8,1.2-8.5,3.6-10.8c2.4-2.3,5.3-3.5,8.7-3.5c6.5,0,9.7,4,9.7,12v26.4h9.7V55c0-5.5-1.6-9.7-4.8-12.6
	C733.7,39.5,729.6,38,724.5,38z"/>
<path class="st0" d="M768.2,38c-7.1,0-12.5,2.1-16.4,6.3c-3.9,4.2-5.8,10-5.8,17.4c0,7.4,2,13.2,6,17.4c4,4.2,9.6,6.3,16.8,6.3
	c9.6,0,16.2-3.5,19.5-10.5l-8.1-3.4c-0.7,2-2,3.5-4,4.6c-1.9,1-4.4,1.5-7.4,1.5c-3.6,0-6.6-1-8.9-3.1c-2.3-2-3.7-5.1-4.3-9.1h33.3
	c0.2-1.6,0.4-3.2,0.4-5c0-6.7-1.9-12.1-5.6-16.2C780.1,40,774.9,38,768.2,38z M755.6,57.9c0.6-4,1.9-6.9,4-9c2.2-2.1,5-3.1,8.5-3.1
	c3.3,0,6,1.1,8.1,3.2c2.1,2.1,3.4,5.1,3.9,8.9H755.6z"/>
<path class="st0" d="M817.2,38c-7,0-11.8,3.1-14.3,9.1l0.1-8.2h-9.2v45.5h9.7V60.3c0-2.9,0.6-5.4,1.7-7.5c1.1-2,2.6-3.6,4.3-4.7
	c1.7-1,3.5-1.5,5.5-1.5c2.4,0,4.3,0.4,5.8,1.2l1.5-8.9C821,38.3,819.3,38,817.2,38z"/>
<path class="st0" d="M397.8,77.2c-0.6-0.5-0.8-1.4-0.8-2.6V54.1c0-5.3-1.7-9.3-5.2-12c-3.5-2.7-8.1-4.1-14-4.1
	c-4.9,0-9,1.1-12.4,3.2c-3.4,2.2-5.6,5.1-6.7,8.7l7.5,4c1.8-5.5,5.7-8.3,11.7-8.3c3,0,5.2,0.8,6.8,2.4c1.6,1.6,2.4,3.8,2.4,6.6v2.5
	l-11.6,2c-5.9,1-10.3,2.8-13.3,5.2c-2.9,2.5-4.4,5.5-4.4,9.1c0,3.8,1.4,6.8,4.1,8.8c2.7,2.1,6.3,3.1,10.7,3.1c3.4,0,6.5-0.6,9.2-1.8
	c2.7-1.2,4.8-2.8,6.2-5c0.5,2.2,1.4,3.6,2.6,4.7c0.7,0.5,2,1.1,4,1.1c0,0,0,0.1,0.1,0.1h7.1V78c-0.5,0.1-1,0.1-1.6,0.1
	C399.1,78,398.3,77.7,397.8,77.2z M387.2,69.3c0,2.6-1.2,4.7-3.7,6.3c-2.5,1.6-5.4,2.4-8.7,2.4c-2.2,0-3.9-0.5-5.1-1.3
	c-1.2-0.9-1.8-2.2-1.8-3.9c0-1.8,0.7-3.2,2.3-4.3c1.5-1.1,3.9-1.9,7-2.6l9.9-2V69.3z"/>
<rect x="172.2" y="24.4" class="st0" width="9.7" height="8.3"/>
<path class="st0" d="M693.4,74.3c-2.1,1.9-4.6,2.9-7.3,2.9c-2.1,0-3.7-0.5-4.9-1.6c-1.1-1.1-1.8-2.7-1.8-4.8V46.5h14.4v-7.6h-14.4
	V25.6l-9.7,2.7v10.6h-2.2v0c-1.1,0-2.8,0-4.2,0.1c0,0-0.1,0-0.1,0c-0.9,0-1.5,0-2.1,0.1c-0.7,0-1.1,0.1-1.3,0.1
	c-2.4,0.3-4.8,0.8-6.5,1.6c-0.1,0.1-0.2,0.1-0.3,0.1c-0.1,0-0.1,0.1-0.2,0.1c-1.4,0.9-2.7,2.6-3.1,3.2c0,0.1-0.1,0.1-0.1,0.1
	c0,0,0,0.1,0,0.1c0,0,0,0,0,0c-0.6,0.8-1.1,1.8-1.5,2.8l0.1-8.3H639v45.5h9.7V60.3c0-0.3,0.1-0.7,0.2-1.2c1.2-3.2,5-11.6,12.7-11.9
	c0.3,0,0.5,0,0.8,0h3.2h4v25.2c0.1,4.4,1.4,7.7,3.9,9.7c2.5,2.1,5.9,3.2,10.1,3.2c2.5,0,4.7-0.4,6.8-1.1c2.1-0.7,3.9-1.6,5.3-2.9
	L693.4,74.3z M669.7,46.7c0-0.1,0-0.1-0.1-0.2l0.1,0V46.7z"/>
</svg>
