<svg id="Lager_1" data-name="Lager 1" xmlns="http://www.w3.org/2000/svg" viewBox="0 0 429.1 557.69"><defs><style>.cls-1{fill:#1b1b1b;}</style></defs><title>Rityta 2</title><path class="cls-1" d="M53.42,509.18c0,10.42-6.12,17.05-14.35,17.05-4.56,0-7.91-1.67-10.09-4.57V537H21.9V493.1h6.56v4.57c2.19-3.41,5.72-5.47,10.68-5.47C47.37,492.2,53.42,498.89,53.42,509.18Zm-7.21,0c0-6.56-3.28-10.93-8.55-10.93s-9,4.12-9,10.93,3.93,10.94,9,10.94S46.21,515.87,46.21,509.18Z"/><path class="cls-1" d="M86.92,493.1v32.29H80.43v-3.73c-1.74,2.83-5,4.7-9.59,4.7-8.17,0-11.51-4.51-11.51-10.36V493.1H66.4v21c0,3.86,2,6.18,6,6.18,4.3,0,7.46-2.51,7.46-7.59V493.1Z"/><path class="cls-1" d="M122.74,503.27v22.12h-7.07V505.45c0-4.76-2.38-7.33-6.69-7.33a7.17,7.17,0,0,0-7.27,7.53v19.74H94.64V493.1h6.56V497c2.06-3.16,5.53-5,10-5C118.82,492.07,122.74,496.9,122.74,503.27Z"/><path class="cls-1" d="M142.55,509.89,137.47,515v10.35H130.4V479.72h7.07v27.53l13.45-14.15h8.23l-11.71,12.22,12.93,20.07h-7.85Z"/><path class="cls-1" d="M183,524.88a21.39,21.39,0,0,1-6.95,1.22c-6.43,0-8.81-3.09-8.81-8.68v-19H161.4V493.1h5.85V482.68h7.07V493.1h8.17v5.34h-8.17v18.14c0,2.51,1.1,3.41,3.48,3.41a15.27,15.27,0,0,0,4.31-.71Z"/><path class="cls-1" d="M227.45,497l-3.86,4.7c-4.05-3.09-6.5-3.86-9.91-3.86-3.79,0-6.17,1.67-6.17,3.92,0,2.45,2.38,2.9,8,4.18,8.68,1.93,12.41,4.25,12.41,10.1,0,6.11-5.08,10.36-13.44,10.36-5.85,0-10.1-1.48-15.31-6.05l4.12-4.63c4.76,3.92,7.46,5,11.32,5,3.6,0,6.37-1.54,6.37-4.18,0-3.09-3.61-3.79-8.43-4.82-8.88-2-11.84-4.12-11.84-9.65s4.89-9.91,13.06-9.91C219.15,492.07,222.94,493.36,227.45,497Z"/><path class="cls-1" d="M252.08,524.88a21.39,21.39,0,0,1-7,1.22c-6.43,0-8.81-3.09-8.81-8.68v-19h-5.85V493.1h5.85V482.68h7.08V493.1h8.16v5.34H243.4v18.14c0,2.51,1.09,3.41,3.47,3.41a15.27,15.27,0,0,0,4.31-.71Z"/><path class="cls-1" d="M284.37,493.1v32.29h-6.5v-3.73c-1.74,2.83-4.95,4.7-9.59,4.7-8.16,0-11.51-4.51-11.51-10.36V493.1h7.08v21c0,3.86,2,6.18,6,6.18,4.31,0,7.46-2.51,7.46-7.59V493.1Z"/><path class="cls-1" d="M321.86,479.72v45.67H315.3V520.7c-2.19,3.53-5.66,5.59-10.68,5.59-8.23,0-14.28-6.69-14.28-17s6.18-17.05,14.35-17.05c4.63,0,7.91,1.67,10.09,4.7V479.72ZM315,509.25c0-6.95-3.86-10.94-8.94-10.94s-8.55,4.31-8.55,10.94,3.28,11,8.49,11S315,516.13,315,509.25Z"/><path class="cls-1" d="M336.65,487.51h-7.08v-7.27h7.08Zm0,37.88h-7.08V493.1h7.08Z"/><path class="cls-1" d="M375.37,509.25c0,10.16-6.82,17.11-16.4,17.11s-16.47-7-16.47-17.11,6.76-17.18,16.47-17.18S375.37,499,375.37,509.25Zm-25.66,0c0,6.69,3.6,11.13,9.26,11.13s9.2-4.44,9.2-11.13-3.67-11.19-9.2-11.19S349.71,502.49,349.71,509.25Z"/><path class="cls-1" d="M406.69,497l-3.86,4.7c-4.05-3.09-6.5-3.86-9.91-3.86-3.79,0-6.17,1.67-6.17,3.92,0,2.45,2.38,2.9,8,4.18,8.68,1.93,12.41,4.25,12.41,10.1,0,6.11-5.08,10.36-13.44,10.36-5.85,0-10.1-1.48-15.31-6.05l4.12-4.63c4.76,3.92,7.46,5,11.32,5,3.6,0,6.37-1.54,6.37-4.18,0-3.09-3.61-3.79-8.43-4.82C383,509.63,380,507.51,380,502s4.89-9.91,13.06-9.91C398.39,492.07,402.18,493.36,406.69,497Z"/><path class="cls-1" d="M214.55,27.77A191.56,191.56,0,0,1,350,354.78,191.56,191.56,0,0,1,79.1,83.88,190.3,190.3,0,0,1,214.55,27.77m0-7C104.86,20.73,16,109.64,16,219.33s88.91,198.61,198.6,198.61S413.16,329,413.16,219.33,324.24,20.73,214.55,20.73Z"/></svg>