<svg width="284" height="132" xmlns="http://www.w3.org/2000/svg"><g fill="none" fill-rule="evenodd"><path d="M148.478 83.23c-11.07-3.558-23.444-7.917-32.182-15.805-9.962-8.993-4.337-23.472 9.881-21.853-6.972-6.119-17.92-12.383-27.326-8.523-6.63 2.721-11.867 10.549-11.705 17.848.585 26.257 43.805 27.928 61.332 28.332" fill="#FFCD00"/><path d="M127.936 44.78c-1.403-6.42-1.528-13.375-.378-19.83 2.27-12.744 10.894-21.725 23.779-23.904 12.53-2.118 25.526 1.045 33.477 11.664 5.434 7.258 6.77 15.472 5.068 24.187-4.034 20.662-22.078 35.712-39.27 45.843 7.678-13.407 21.839-46.654-2.98-50.258-9.06-1.315-15.943 4.435-19.696 12.297M3.58 107.778h4.697c2.833 0 5.667-.671 5.667-4.254 0-3.582-2.834-4.253-5.667-4.253H3.579v8.507zM0 96.136h9.284c6.748 0 8.463 4.067 8.463 7.388 0 3.359-2.498 6.53-6.487 6.978l7.494 12.053h-4.475l-6.71-11.643h-3.99v11.643H0V96.136zM33.526 112.256c-.074-2.948-1.716-5.15-5.108-5.15-3.318 0-5.481 2.8-5.481 5.15h10.589zm-10.59 2.687c0 3.097 2.872 5.15 5.966 5.15 2.052 0 3.543-1.046 4.848-2.65l2.535 1.94c-1.864 2.426-4.437 3.62-7.83 3.62-5.593 0-9.097-4.03-9.097-9.291 0-5.3 3.84-9.292 9.134-9.292 6.227 0 8.613 4.776 8.613 9.329v1.194H22.937zM43.215 113.711c0 3.583 2.237 5.933 5.817 5.933 3.579 0 5.816-2.35 5.816-5.933 0-3.582-2.237-6.156-5.816-6.156-3.58 0-5.817 2.574-5.817 6.156zm14.989 8.695c0 5.336-3.878 9.104-9.657 9.104-3.356 0-6.152-.858-8.65-3.171l2.274-2.837c1.753 1.866 3.729 2.874 6.301 2.874 4.997 0 6.376-3.135 6.376-6.12v-2.612h-.112c-1.267 2.128-3.69 3.135-6.114 3.135-5.183 0-9.023-3.918-8.986-9.068 0-5.224 3.505-9.291 8.986-9.291 2.386 0 4.847 1.082 6.152 2.985h.074v-2.537h3.356v17.538zM62.309 122.555h3.355v-17.687h-3.355v17.687zm1.677-26.493c1.342 0 2.461 1.119 2.461 2.462 0 1.344-1.119 2.464-2.46 2.464-1.343 0-2.462-1.12-2.462-2.464a2.484 2.484 0 0 1 2.461-2.462zM78.6 119.868c3.58 0 5.816-2.574 5.816-6.157 0-3.582-2.236-6.156-5.816-6.156-3.58 0-5.816 2.574-5.816 6.156 0 3.583 2.237 6.157 5.816 6.157m0-15.448c5.258 0 9.396 4.142 9.396 9.291 0 5.15-4.138 9.292-9.396 9.292-5.257 0-9.395-4.142-9.395-9.292 0-5.15 4.138-9.291 9.395-9.291M91.276 104.868h3.357v2.724h.074c.857-1.866 3.094-3.172 5.816-3.172 3.43 0 6.413 2.053 6.413 6.754v11.38h-3.355v-10.447c0-3.321-1.902-4.552-4.028-4.552-2.796 0-4.92 1.79-4.92 5.895v9.105h-3.357v-17.687zM121.365 96.136h3.579v11.419h.298l11.67-11.419h4.997l-12.752 12.202 13.609 14.217h-5.22l-12.304-13.21h-.298v13.21h-3.58zM153.279 114.047c-3.169 0-7.047.56-7.047 3.396 0 2.014 1.492 2.873 3.803 2.873 3.729 0 5.034-2.762 5.034-5.15v-1.119h-1.79zm-9.47-7.015c1.864-1.754 4.549-2.612 7.009-2.612 5.22 0 7.382 2.836 7.382 5.896v9.03c0 1.231.037 2.276.15 3.209h-2.983a32.222 32.222 0 0 1-.112-2.687h-.074c-1.492 2.276-3.506 3.135-6.19 3.135-3.281 0-6.115-1.867-6.115-5.299 0-4.552 4.363-6.12 9.732-6.12h2.46v-.745c0-1.83-1.341-3.733-4.212-3.733-2.573 0-3.804 1.083-5.034 2.016l-2.013-2.09zM162.413 122.555h3.355v-28.21h-3.355zM170.167 104.868h3.132v2.761h.074c.336-1.045 2.499-3.21 5.667-3.21 2.611 0 4.4 1.12 5.52 3.284 1.155-2.163 3.467-3.283 5.592-3.283 5.444 0 6.711 3.88 6.711 7.836v10.299h-3.355v-9.851c0-2.687-.56-5.149-3.804-5.149-3.243 0-4.51 2.201-4.51 5.335v9.665h-3.357V113.3c0-3.358-.484-5.746-3.728-5.746-2.423 0-4.586 1.828-4.586 5.82v9.18h-3.356v-17.687zM210.546 114.047c-3.17 0-7.047.56-7.047 3.396 0 2.014 1.49 2.873 3.802 2.873 3.73 0 5.034-2.762 5.034-5.15v-1.119h-1.79zm-9.47-7.015c1.864-1.754 4.548-2.612 7.008-2.612 5.22 0 7.383 2.836 7.383 5.896v9.03c0 1.231.037 2.276.15 3.209h-2.984a32.222 32.222 0 0 1-.111-2.687h-.075c-1.491 2.276-3.505 3.135-6.19 3.135-3.28 0-6.114-1.867-6.114-5.299 0-4.552 4.362-6.12 9.731-6.12h2.461v-.745c0-1.83-1.342-3.733-4.213-3.733-2.572 0-3.804 1.083-5.033 2.016l-2.013-2.09zM219.418 104.868h3.356v2.724h.075c.857-1.866 3.094-3.172 5.294-3.172.522 0 1.043.075 1.492.224l-.15 3.62c-.559-.15-1.118-.262-1.64-.262-3.281 0-5.07 1.791-5.07 5.672v8.88h-3.357v-17.686zM241.975 122.555h3.355v-28.21h-3.355zM263.002 98.04c0 1.343-.968 2.35-2.312 2.35-1.341 0-2.31-1.007-2.31-2.35 0-1.232 1.155-2.127 2.31-2.127 1.156 0 2.312.895 2.312 2.126zm-3.728 16.007c-3.17 0-7.047.56-7.047 3.396 0 2.014 1.492 2.873 3.803 2.873 3.729 0 5.034-2.761 5.034-5.15v-1.119h-1.79zm-3.878-16.008c0 1.344-.97 2.351-2.311 2.351-1.343 0-2.312-1.007-2.312-2.35 0-1.232 1.156-2.127 2.312-2.127 1.155 0 2.311.895 2.311 2.126zm-5.592 8.993c1.864-1.754 4.548-2.612 7.009-2.612 5.22 0 7.383 2.836 7.383 5.896v9.03c0 1.231.037 2.276.149 3.209h-2.983a32.041 32.041 0 0 1-.112-2.687h-.074c-1.492 2.276-3.505 3.135-6.19 3.135-3.281 0-6.115-1.867-6.115-5.299 0-4.552 4.363-6.12 9.731-6.12h2.462v-.745c0-1.83-1.343-3.732-4.213-3.732-2.573 0-3.804 1.082-5.034 2.014l-2.013-2.089zM268.147 104.868h3.356v2.724h.074c.858-1.866 3.095-3.172 5.816-3.172 3.43 0 6.413 2.053 6.413 6.754v11.38h-3.355v-10.447c0-3.321-1.902-4.552-4.028-4.552-2.795 0-4.92 1.79-4.92 5.895v9.105h-3.356v-17.687z" fill="#C8102E"/></g></svg>