<?xml version="1.0" encoding="UTF-8"?> <svg xmlns="http://www.w3.org/2000/svg" id="Layer_1" data-name="Layer 1" viewBox="0 0 359.84 70.01"> <defs> <style>.cls-1{fill:#706f6f;}.cls-2{fill:#d60f3c;}</style> </defs> <title>Ricoh-Logo</title> <path class="cls-1" d="M255.59,13.23a6.78,6.78,0,0,0-3.46-.93,6.22,6.22,0,0,0-6.43,6.55A6.24,6.24,0,0,0,252,25.4a8.32,8.32,0,0,0,3.65-.81l.15,2.32a10.48,10.48,0,0,1-3.82.6c-5.3,0-8.83-3.4-8.83-8.73,0-5.16,3.74-8.6,8.85-8.6a9.37,9.37,0,0,1,3.77.72Z"></path> <path class="cls-1" d="M263.89,14.7a6,6,0,0,1,6.22,6.41,6.23,6.23,0,1,1-12.46,0A6,6,0,0,1,263.89,14.7Zm0,11c2.64,0,3.82-2.4,3.82-4.58s-1.42-4.59-3.82-4.59-3.84,2.26-3.84,4.59S261.23,25.69,263.89,25.69Z"></path> <path class="cls-1" d="M273.13,15h2.12v1.9h0a3.73,3.73,0,0,1,3.2-2.18,6.69,6.69,0,0,1,1.48.16v2a3.25,3.25,0,0,0-1.24-.22c-2,0-3.34,1.93-3.34,5v5.57h-2.26Z"></path> <path class="cls-1" d="M282.47,15h2.16v1.73h.05a4.9,4.9,0,0,1,4.15-2c3.55,0,5.28,2.9,5.28,6.19s-1.56,6.62-5.26,6.62a4.4,4.4,0,0,1-4.08-2h0v6.72h-2.26Zm5.88,1.54c-2.45,0-3.62,2.33-3.62,4.61,0,2,1,4.56,3.6,4.56s3.43-2.71,3.38-4.63C291.76,18.85,290.8,16.52,288.35,16.52Z"></path> <path class="cls-1" d="M302.56,14.7c3.72,0,6.21,2.68,6.21,6.41a6.23,6.23,0,1,1-12.45,0A6,6,0,0,1,302.56,14.7Zm0,11c2.64,0,3.81-2.4,3.81-4.58s-1.41-4.59-3.81-4.59-3.84,2.26-3.84,4.59S299.89,25.69,302.56,25.69Z"></path> <path class="cls-1" d="M311.8,15h2.11v1.9h0a3.72,3.72,0,0,1,3.19-2.18,6.79,6.79,0,0,1,1.49.16v2a3.34,3.34,0,0,0-1.25-.22c-2,0-3.34,1.93-3.34,5v5.57H311.8Z"></path> <path class="cls-1" d="M321.71,15.85a7.81,7.81,0,0,1,4-1.15c3.51,0,4.92,1.72,4.92,5.06v5.07a18.61,18.61,0,0,0,.1,2.4h-2.11V25.64h0a4.53,4.53,0,0,1-3.79,1.87c-2.64,0-4.49-1.15-4.49-3.81,0-3.07,3.36-4,5.69-4,.88,0,1.51,0,2.4,0,0-2.11-.77-3.19-3-3.19a5.74,5.74,0,0,0-3.55,1.25Zm6.7,5.54c-.48,0-1,0-1.44,0-1.23,0-4.25.19-4.25,2.35a2.16,2.16,0,0,0,2.28,2,3.09,3.09,0,0,0,3.41-3.22Z"></path> <path class="cls-1" d="M341,16.81h-3.24v6.7a2,2,0,0,0,1.9,2.18,2.82,2.82,0,0,0,1.53-.43v1.92a7.21,7.21,0,0,1-1.92.33c-2.32,0-3.76-1.1-3.76-3.55V16.81h-2.76V15h2.76V12.15l2.25-.72V15H341Z"></path> <path class="cls-1" d="M353.2,26.72a9.45,9.45,0,0,1-3.87.79c-4.34,0-6.33-2.64-6.33-6.62,0-3.63,2.28-6.19,5.73-6.19,4.08,0,5.4,3,5.4,6.91H345.4a4,4,0,0,0,4,4.08,7.28,7.28,0,0,0,3.77-1.22Zm-1.47-6.79c0-1.87-1.1-3.41-3-3.41-2.21,0-3.13,1.82-3.29,3.41Z"></path> <path class="cls-1" d="M244.31,39.13h2.4V55.88h-2.4Z"></path> <path class="cls-1" d="M254.32,41.24h-5.21V39.13h12.82v2.11h-5.21V55.88h-2.4Z"></path> <path class="cls-1" d="M270.85,39.13h4.4c3.43,0,6.28,1.2,6.28,5s-2.9,5-5.92,5h-2.36v6.7h-2.4Zm2.4,7.94h2.38c1.49,0,3.36-.74,3.36-3s-2.21-2.88-3.7-2.88h-2Z"></path> <path class="cls-1" d="M284.7,44.5a7.81,7.81,0,0,1,4-1.15c3.51,0,4.92,1.73,4.92,5.07v5.06a18.61,18.61,0,0,0,.1,2.4h-2.11V54.3h-.05a4.56,4.56,0,0,1-3.79,1.87c-2.64,0-4.49-1.15-4.49-3.82,0-3.07,3.36-4,5.69-4,.89,0,1.51,0,2.4,0,0-2.11-.77-3.19-3-3.19a5.79,5.79,0,0,0-3.55,1.24Zm6.7,5.55c-.48,0-1,0-1.44,0-1.23,0-4.25.19-4.25,2.35a2.16,2.16,0,0,0,2.28,2,3.1,3.1,0,0,0,3.41-3.22Z"></path> <path class="cls-1" d="M297.47,43.64h2.11v1.9h.05a3.72,3.72,0,0,1,3.19-2.19,6.18,6.18,0,0,1,1.49.17v2a3.3,3.3,0,0,0-1.25-.22c-2,0-3.33,1.92-3.33,5v5.57h-2.26Z"></path> <path class="cls-1" d="M313.31,45.46h-3.24v6.7a1.94,1.94,0,0,0,1.9,2.19,2.73,2.73,0,0,0,1.53-.44v1.92a6.81,6.81,0,0,1-1.92.34c-2.33,0-3.77-1.1-3.77-3.55V45.46h-2.76V43.64h2.76V40.81l2.26-.72v3.55h3.24Z"></path> <path class="cls-1" d="M316.14,43.64h2.19v1.94h0a4.42,4.42,0,0,1,4-2.23c3.17,0,4.59,2,4.59,5.26v7.27h-2.26V49.55c0-2.86-.62-4.25-2.59-4.37-2.57,0-3.72,2.06-3.72,5v5.66h-2.26Z"></path> <path class="cls-1" d="M340.19,55.38a9.4,9.4,0,0,1-3.86.79c-4.35,0-6.34-2.64-6.34-6.62,0-3.63,2.28-6.2,5.74-6.2,4.08,0,5.4,3,5.4,6.91h-8.74a4,4,0,0,0,4,4.09,7.19,7.19,0,0,0,3.77-1.23Zm-1.46-6.8c0-1.87-1.11-3.4-3.05-3.4-2.21,0-3.12,1.82-3.29,3.4Z"></path> <path class="cls-1" d="M344.15,43.64h2.11v1.9h.05a3.72,3.72,0,0,1,3.19-2.19,6.18,6.18,0,0,1,1.49.17v2a3.3,3.3,0,0,0-1.25-.22c-2,0-3.33,1.92-3.33,5v5.57h-2.26Z"></path> <path class="cls-2" d="M77.42,33.88c0,5.89,4.8,10.24,12.82,10.24a24.43,24.43,0,0,0,9.87-1.88l3,3.72a30.43,30.43,0,0,1-14.29,3C76,49,66.63,43.4,66.63,33.88h0c0-9.52,9.41-15.12,22.2-15.12a34.1,34.1,0,0,1,14,2.5l-3.08,4.28a20.19,20.19,0,0,0-9.5-1.91c-8,0-12.82,4.35-12.82,10.24"></path> <path class="cls-2" d="M126.24,18.75c-12.39,0-21.32,5.61-21.32,15.13S113.85,49,126.24,49s21.33-5.6,21.33-15.12-8.94-15.13-21.33-15.13m0,25.55c-6.81,0-10.57-4.66-10.57-10.43s3.76-10.42,10.57-10.42,10.58,4.66,10.58,10.42S133.05,44.3,126.24,44.3"></path> <polygon class="cls-2" points="179.77 36.06 179.77 48.24 190.01 48.24 190.01 19.51 179.77 19.51 179.77 30.47 164.12 30.47 164.12 19.51 153.91 19.51 153.91 48.24 164.12 48.24 164.12 36.06 179.77 36.06"></polygon> <rect class="cls-2" x="49.68" y="19.51" width="10.78" height="28.73"></rect> <path class="cls-2" d="M18.76,32.66v2.75a77.18,77.18,0,0,1,14,12.83H44.85a75.3,75.3,0,0,0-15.38-12.5c5.57-.21,11.77-2.26,11.77-8.08,0-7.46-8.77-8.83-17.63-8.83-7.23,0-13.9.31-17.91.61v28.8H15.77V23.77a70.17,70.17,0,0,1,7.89-.38c5.18,0,7.81,1.56,7.81,4.27,0,2.32-1.09,5.1-12.71,5"></path> <rect class="cls-1" x="212.45" y="2.76" width="1.5" height="64.5"></rect> </svg> 