<svg xmlns="http://www.w3.org/2000/svg" version="1.1" x="0" y="0" viewBox="0 0 512 512" xml:space="preserve"><style type="text/css">
  .st0{fill:#E42313;}
  .st1{fill:#FFFFFF;}
</style><rect class="st0" width="512" height="512"/><path class="st1" d="M407.5 122.4c0-5.3-3.7-11.8-8.3-14.4L264.8 30.4c-4.6-2.6-12.1-2.6-16.6 0l-55.5 32c-4.6 2.6-4.6 7 0 9.6l206.5 119.2c4.6 2.6 8.3 0.5 8.3-4.8L407.5 122.4zM105.4 277.6c0 5.3 3.7 11.8 8.3 14.4l134.4 77.6c4.6 2.6 12.1 2.6 16.6 0l56.3-32.5c4.6-2.6 4.6-7 0-9.6L113.8 207.8c-4.6-2.6-8.3-0.5-8.3 4.8L105.4 277.6zM399.2 292c4.6-2.6 8.3-9.1 8.3-14.4l0-51.8c0-5.3-3.7-11.8-8.3-14.4L175.3 82.1c-4.6-2.6-12.1-2.6-16.6 0L113.8 108c-4.6 2.6-8.3 9.1-8.3 14.4l0 50.8c0 5.3 3.7 11.8 8.3 14.4l224.8 129.8c4.6 2.6 12.1 2.6 16.6 0L399.2 292z"/><path class="st1" d="M90.4 417.3c0-6.2-3.2-10.2-13.8-10.2 -10.5 0-13.7 4-13.7 10.2v5.1c0 5.7 3.1 8.2 6.3 9.6l18.6 8.4c5.5 2.5 10.8 6.8 10.8 15v11.1c0 9-5.4 16.5-22.1 16.5 -16.8 0-22.1-7.5-22.1-16.5v-7.1c0-1.3 0.5-1.8 1.7-1.8h4.5c1.1 0 1.5 0.5 1.5 1.8v6.5c0 6.3 3.7 10.4 14.4 10.4 10.6 0 14.3-4 14.3-10.4v-8.7c0-5.8-4.2-8.6-8.6-10.6l-17.7-8.1c-4.6-2.1-9.3-7-9.3-14.4v-7.4c0-9 4.8-16.5 21.4-16.5s21.5 7.5 21.5 16.5v6.4c0 1.1-0.5 1.7-1.7 1.7h-4.4c-1.3 0-1.7-0.6-1.7-1.7V417.3zM147 401.3c1.1 0 1.7 0.5 1.7 1.7v3.5c0 1.2-0.6 1.7-1.7 1.7h-17.2v72.3c0 1.2-0.5 1.8-1.5 1.8h-4.8c-1.2 0-1.7-0.6-1.7-1.8v-72.3h-17.2c-1.2 0-1.7-0.5-1.7-1.7v-3.5c0-1.2 0.5-1.7 1.7-1.7H147zM170.6 401.3c1.2 0 1.9 0.6 2.1 1.7l20.6 77.6c0.4 1.2-0.1 1.7-1.3 1.7h-4.8c-1.2 0-1.8-0.6-2-1.7l-5.7-21.7h-23.2l-5.6 21.7c-0.2 1.1-0.8 1.7-1.9 1.7h-4.4c-1.2 0-1.7-0.5-1.3-1.7l20.6-77.6c0.2-1.1 1-1.7 2.1-1.7H170.6zM170.5 424.1c-0.8-3.1-2.1-10.1-2.5-13.2 -0.5 3.4-1.8 10.2-2.5 13.1l-7.6 28.4h20.2L170.5 424.1zM245.2 480.5c0 1.1-0.4 1.7-1.5 1.7h-4.3c-1 0-1.4-0.2-1.8-1l-26.4-55.1c-1.2-2.4-2.6-5.6-3.3-8v62.3c0 1.1-0.5 1.7-1.7 1.7h-4c-1.2 0-1.7-0.6-1.7-1.7v-77.6c0-1.1 0.5-1.7 1.7-1.7h4.3c0.8 0 1.2 0.2 1.5 1l26.9 55.6c1.2 2.4 2.5 5.7 3 7.3v-62.1c0-1.1 0.6-1.7 1.8-1.7h4c1.2 0 1.5 0.6 1.5 1.7V480.5zM256 482.2c-1 0-1.4-0.6-1.4-1.8v-77.3c0-1.2 0.5-1.8 1.5-1.8h20.7c17 0 22.4 7.5 22.4 16.5v47.8c0 9-5.4 16.5-22.4 16.5H256zM262.6 408.1v67.3h14.2c10.7 0 14.5-4.3 14.5-10.6v-46.2c0-6.3-3.8-10.6-14.5-10.6H262.6zM307.4 416.9c0-9 5.4-16.5 22.4-16.5s22.4 7.5 22.4 16.5v49.7c0 9-5.4 16.5-22.4 16.5s-22.4-7.5-22.4-16.5V416.9zM344 417.6c0-6.3-3.7-10.5-14.3-10.5 -10.6 0-14.4 4.2-14.4 10.5v48.3c0 6.2 3.8 10.5 14.4 10.5 10.6 0 14.3-4.3 14.3-10.5V417.6zM368.7 465.9c0 6.3 3.8 10.5 14.4 10.5 10.6 0 14.4-4.2 14.4-10.5v-62.8c0-1.2 0.5-1.8 1.7-1.8h4.6c1.2 0 1.7 0.6 1.7 1.8v63.5c0 9-5.4 16.5-22.4 16.5 -17 0-22.4-7.5-22.4-16.5v-63.5c0-1.2 0.6-1.8 1.7-1.8h4.8c1.1 0 1.5 0.6 1.5 1.8V465.9zM456.9 401.3c1.1 0 1.7 0.5 1.7 1.7v3.5c0 1.2-0.6 1.7-1.7 1.7h-17.2v72.3c0 1.2-0.5 1.8-1.5 1.8h-4.8c-1.2 0-1.7-0.6-1.7-1.8v-72.3h-17.2c-1.2 0-1.7-0.5-1.7-1.7v-3.5c0-1.2 0.5-1.7 1.7-1.7H456.9z"/></svg>
