<svg version="1.1" id="Lager_1" xmlns="http://www.w3.org/2000/svg" xmlns:xlink="http://www.w3.org/1999/xlink" x="0px" y="0px" width="571px" height="85px" viewBox="0 0 571 85" xml:space="preserve" enable-background="new 0 0 571 85">
  <style type="text/css">  
	.st0{fill:#55565A;}
	.st1{fill:#A41F35;}
  </style>
  <path class="st0" d="M541.9 72.8c-22.6 0-38.7-12.9-38.7-30.3 0-16.4 15.8-30.8 39.9-30.8 8.7 0 15.8 1.9 22.9 4.8v-12c-5.8-1.8-13.8-3.1-23-3.1 -33.5 0-55.5 18.6-55.5 42.1 0 23.1 19.3 40.7 52 40.7 9.7 0 19.5-1.7 29.3-5.7l-4.3-9.8C557.6 71.2 550 72.8 541.9 72.8"/>
  <rect x="252.5" y="2.4" class="st0" width="14.2" height="81.2"/>
  <path class="st0" d="M372.4 14.1h-36.7v69.6h-14.4V14.1h-36.8c0 0 0-11.5 11.7-11.5h76.2L372.4 14.1z"/>
  <path class="st0" d="M190.1 83.7h-11.7L137 2.5h15.9l32 62.6c2.4-4.3 28.8-52.9 30.1-55.2 5.8-10.2 19.6-7.3 19.6-7.3L190.1 83.7z"/>
  <path class="st0" d="M399.4 25.1c4.2-8.2 14.9-14.5 28-14.5 17.6 0 30.5 11.6 30.5 22.9h-39.1c-0.2 0-11.3 0.3-11.3 11.3l0 0h65.2v-2.9c0-25.3-15.8-41.9-45.5-41.9 -27.8 0-46.5 17.5-46.5 41.1 0 23.2 17.3 44 53.4 44 13.4 0 27-3.7 35.3-8.5l-4.7-9.6c-6.8 3.1-17.2 6.2-26.9 6.3 -19.9 0.3-34.6-8.7-38.9-20.5C397.1 49.3 392.8 37.6 399.4 25.1"/>
  <path class="st1" d="M70.5 11.8c3.3-3.3 6.7-6.4 10.2-9.4H53.5C17.6 3.9 24.8 34 26.4 39.6c0.1 0.3 0.2 0.6 0.3 0.9 0 0 0 0 0 0v0c1.4 4.3 3 8.6 4.7 12.8 1.4 3.4 3 6.7 4.6 10 0.2-0.4 0.3-0.8 0.5-1.2C44.6 43.3 56 26.4 70.5 11.8"/>
  <path class="st0" d="M102.2 2.3c-3.8 2.1-7.3 4.6-9.8 6.6 -1.2 0.9-2.3 1.9-3.5 2.8 -0.3 0.3-0.5 0.5-0.5 0.5l0.1-0.1c-3.1 2.7-6.2 5.5-9.1 8.4C65.9 33.9 55.3 49.5 48 67c-1.4 3.4-2.7 6.8-3.9 10.2 -0.7 2.2-1.4 4.5-2.1 6.7 2 0 4.3 0 6.8 0 6 0 13.2 0 21.9 0 31.5 0 31.5-31.3 31.5-31.3V2.3z"/>
  <path class="st0" d="M30.5 78.9c-4-6.6-7.5-13.6-10.6-20.8 -3.8-8.9-6.7-18.1-8.8-27.4C-5.5 67.1 0.5 83.8 26 83.9c0.9 0 1.9 0 3.2 0 1.3 0 2.8 0 4.5 0C32.6 82.2 31.5 80.6 30.5 78.9"/>
</svg>