<svg xmlns="http://www.w3.org/2000/svg" viewBox="0 0 233.27 77.69"><defs><style>.cls-1{fill:#2369b1;}.cls-2{fill:#fff;}</style></defs><title>viva-logo BLÅ-26</title><g id="Layer_1" data-name="Layer 1"><rect class="cls-1" x="0.21" width="233.06" height="77.69"/><g id="_Group_" data-name="&lt;Group&gt;"><path id="_Compound_Path_" data-name="&lt;Compound Path&gt;" class="cls-2" d="M43.45,51.79H39.7L31.24,25.9h5.19l5.15,16.88L46.73,25.9h5.22Z"/><path id="_Compound_Path_2" data-name="&lt;Compound Path&gt;" class="cls-2" d="M54.37,51.79V25.9h5v25.9Z"/><path id="_Compound_Path_3" data-name="&lt;Compound Path&gt;" class="cls-2" d="M74,51.79H70.26L61.79,25.9H67l5.15,16.88L77.28,25.9H82.5Z"/><path id="_Compound_Path_4" data-name="&lt;Compound Path&gt;" class="cls-2" d="M86.8,25.9h3.75L99,51.79H93.82L88.67,34.92,83.52,51.79H78.3Z"/></g><g id="_Group_2" data-name="&lt;Group&gt;"><path id="_Compound_Path_5" data-name="&lt;Compound Path&gt;" class="cls-2" d="M128,51.79V30.44l-7.78,17.71h-1.95l-7.93-17.71V51.79h-1.95V25.9h1.95l8.93,20,8.72-20H130V51.79Z"/><path id="_Compound_Path_6" data-name="&lt;Compound Path&gt;" class="cls-2" d="M135.72,51.79V25.9h15.56v1.75H137.66V37.86h11.6v1.74h-11.6V50h13.62v1.74Z"/><path id="_Compound_Path_7" data-name="&lt;Compound Path&gt;" class="cls-2" d="M170.12,49.43a8.81,8.81,0,0,1-6.41,2.36h-8.61V25.9h8.61a8.81,8.81,0,0,1,6.41,2.36c2.59,2.62,2.49,6.73,2.49,10.22S172.71,46.81,170.12,49.43Zm-1.37-19.78a7.33,7.33,0,0,0-5.51-2H157V50h6.2a7.32,7.32,0,0,0,5.51-2c2.05-2.11,1.91-6.69,1.91-9.56S170.8,31.75,168.75,29.64Z"/><path id="_Compound_Path_8" data-name="&lt;Compound Path&gt;" class="cls-2" d="M177.35,51.79V25.9h1.95V51.79Z"/><path id="_Compound_Path_9" data-name="&lt;Compound Path&gt;" class="cls-2" d="M200.15,51.79l-2.23-6.29H186l-2.23,6.29h-2.09l9.44-25.89h1.73l9.44,25.89Zm-8.21-23.28-5.37,15.24h10.74Z"/></g></g></svg>