<svg class="logo-symbol" width="61px" height="30px" viewBox="0 0 61 30" version="1.1" xmlns="http://www.w3.org/2000/svg" xmlns:xlink="http://www.w3.org/1999/xlink">
    <g stroke="none" stroke-width="0" fill="none" fill-rule="evenodd">
        <path class="logo-symbol__line" d="M13.0582353,24.8770588 C13.2335294,24.8835294 13.3982353,24.9029412 13.57,24.9111765 L13.57,1.55058824 L0,8.96470588 L0,27.6352941 C2.94941176,26.1794118 7.39647059,24.6829412 13.0582353,24.8770588" fill="#004C81"></path>
        <path class="logo-symbol__line" d="M27.1188235,28.0347059 C27.8705882,28.3005882 28.5894118,28.5511765 29.2782353,28.7805882 L29.2782353,14.7511765 L15.7070588,9.60352941 L15.7070588,25.0876471 C20.1723529,25.6017647 23.9729412,26.9264706 27.1188235,28.0347059" fill="#9BB8C7"></path>
        <path class="logo-symbol__line" d="M33.8105882,29.7764706 C36.2864706,29.7764706 38.0235294,28.9870588 40.4264706,27.8964706 C41.7547059,27.2935294 43.2435294,26.6311765 44.98,26.0623529 L44.98,0 L31.4135294,4.89764706 L31.4135294,29.4170588 C32.2917647,29.6376471 33.0982353,29.7764706 33.8105882,29.7764706" fill="#004C81"></path>
        <path class="logo-symbol__line" d="M53.1011765,24.7170588 C55.4035294,24.6770588 57.9994118,25.1347059 60.6894118,25.8423529 L60.6894118,6.35058824 L47.1188235,9.63 L47.1188235,25.4541176 C48.8458824,25.0435294 50.8076471,24.7582353 53.1011765,24.7170588" fill="#9BB8C7"></path>
    </g>
</svg>